{
	"patcher" : 	{
		"fileversion" : 1,
		"appversion" : 		{
			"major" : 8,
			"minor" : 5,
			"revision" : 6,
			"architecture" : "x64",
			"modernui" : 1
		}
,
		"classnamespace" : "box",
		"rect" : [ 270.0, 268.0, 987.0, 578.0 ],
		"bglocked" : 0,
		"openinpresentation" : 1,
		"default_fontsize" : 12.0,
		"default_fontface" : 0,
		"default_fontname" : "Arial",
		"gridonopen" : 1,
		"gridsize" : [ 15.0, 15.0 ],
		"gridsnaponopen" : 1,
		"objectsnaponopen" : 1,
		"statusbarvisible" : 2,
		"toolbarvisible" : 1,
		"lefttoolbarpinned" : 0,
		"toptoolbarpinned" : 0,
		"righttoolbarpinned" : 0,
		"bottomtoolbarpinned" : 0,
		"toolbars_unpinned_last_save" : 0,
		"tallnewobj" : 0,
		"boxanimatetime" : 200,
		"enablehscroll" : 1,
		"enablevscroll" : 1,
		"devicewidth" : 0.0,
		"description" : "",
		"digest" : "",
		"tags" : "",
		"style" : "",
		"subpatcher_template" : "",
		"assistshowspatchername" : 0,
		"boxes" : [ 			{
				"box" : 				{
					"id" : "obj-30",
					"maxclass" : "newobj",
					"numinlets" : 2,
					"numoutlets" : 1,
					"outlettype" : [ "" ],
					"patching_rect" : [ 524.0, 519.0, 29.5, 22.0 ],
					"text" : "pak"
				}

			}
, 			{
				"box" : 				{
					"comment" : "",
					"id" : "obj-26",
					"index" : 0,
					"maxclass" : "outlet",
					"numinlets" : 1,
					"numoutlets" : 0,
					"patching_rect" : [ 524.0, 570.0, 30.0, 30.0 ]
				}

			}
, 			{
				"box" : 				{
					"id" : "obj-37",
					"maxclass" : "message",
					"numinlets" : 2,
					"numoutlets" : 1,
					"outlettype" : [ "" ],
					"patching_rect" : [ 1101.0, 204.899995028972626, 80.0, 22.0 ],
					"text" : "oscnoteoff 40"
				}

			}
, 			{
				"box" : 				{
					"id" : "obj-35",
					"maxclass" : "message",
					"numinlets" : 2,
					"numoutlets" : 1,
					"outlettype" : [ "" ],
					"patching_rect" : [ 1101.0, 129.899995028972626, 29.5, 22.0 ],
					"text" : "1"
				}

			}
, 			{
				"box" : 				{
					"id" : "obj-31",
					"maxclass" : "message",
					"numinlets" : 2,
					"numoutlets" : 1,
					"outlettype" : [ "" ],
					"patching_rect" : [ 1138.0, 129.899995028972626, 29.5, 22.0 ],
					"text" : "0"
				}

			}
, 			{
				"box" : 				{
					"id" : "obj-29",
					"maxclass" : "newobj",
					"numinlets" : 2,
					"numoutlets" : 1,
					"outlettype" : [ "bang" ],
					"patching_rect" : [ 1138.0, 86.899995028972626, 61.0, 22.0 ],
					"text" : "delay 500"
				}

			}
, 			{
				"box" : 				{
					"id" : "obj-28",
					"maxclass" : "newobj",
					"numinlets" : 2,
					"numoutlets" : 1,
					"outlettype" : [ "bang" ],
					"patching_rect" : [ 1101.0, 166.899995028972626, 63.0, 22.0 ],
					"text" : "metro 100"
				}

			}
, 			{
				"box" : 				{
					"automation" : "\"Stop Notes Off\"",
					"automationon" : "\"Stop Notes On\"",
					"id" : "obj-27",
					"maxclass" : "live.text",
					"mode" : 0,
					"numinlets" : 1,
					"numoutlets" : 2,
					"outlettype" : [ "", "" ],
					"parameter_enable" : 1,
					"patching_rect" : [ 1101.0, 37.899995028972626, 66.0, 26.0 ],
					"presentation" : 1,
					"presentation_rect" : [ 795.0, 52.0, 66.0, 26.0 ],
					"saved_attribute_attributes" : 					{
						"valueof" : 						{
							"parameter_enum" : [ "\"Stop Notes Off\"", "\"Stop Notes On\"" ],
							"parameter_initial" : [ 0.0 ],
							"parameter_initial_enable" : 1,
							"parameter_linknames" : 1,
							"parameter_longname" : "Stop Notes",
							"parameter_mmax" : 1,
							"parameter_shortname" : "Stop",
							"parameter_type" : 2
						}

					}
,
					"text" : "Stop Notes",
					"texton" : "STOP NOTES",
					"varname" : "Stop Notes"
				}

			}
, 			{
				"box" : 				{
					"id" : "obj-21",
					"maxclass" : "newobj",
					"numinlets" : 2,
					"numoutlets" : 1,
					"outlettype" : [ "" ],
					"patching_rect" : [ 289.0, 493.0, 92.0, 22.0 ],
					"text" : "gate"
				}

			}
, 			{
				"box" : 				{
					"id" : "obj-22",
					"maxclass" : "newobj",
					"numinlets" : 0,
					"numoutlets" : 1,
					"outlettype" : [ "" ],
					"patching_rect" : [ 428.5, 445.0, 56.0, 22.0 ],
					"text" : "r #0-msg"
				}

			}
, 			{
				"box" : 				{
					"id" : "obj-23",
					"maxclass" : "newobj",
					"numinlets" : 1,
					"numoutlets" : 1,
					"outlettype" : [ "" ],
					"patching_rect" : [ 362.0, 445.0, 57.0, 22.0 ],
					"text" : "tosymbol"
				}

			}
, 			{
				"box" : 				{
					"color" : [ 1.0, 0.788235294117647, 0.337254901960784, 1.0 ],
					"id" : "obj-24",
					"maxclass" : "newobj",
					"numinlets" : 0,
					"numoutlets" : 1,
					"outlettype" : [ "" ],
					"patching_rect" : [ 362.0, 415.0, 74.0, 22.0 ],
					"text" : "r #0-oscmidi"
				}

			}
, 			{
				"box" : 				{
					"id" : "obj-25",
					"maxclass" : "newobj",
					"numinlets" : 2,
					"numoutlets" : 1,
					"outlettype" : [ "" ],
					"patching_rect" : [ 289.0, 526.0, 53.0, 22.0 ],
					"text" : "pack s 2"
				}

			}
, 			{
				"box" : 				{
					"id" : "obj-20",
					"maxclass" : "newobj",
					"numinlets" : 1,
					"numoutlets" : 1,
					"outlettype" : [ "" ],
					"patching_rect" : [ 289.0, 352.0, 125.0, 22.0 ],
					"text" : "loadmess outputvalue"
				}

			}
, 			{
				"box" : 				{
					"id" : "obj-19",
					"maxclass" : "newobj",
					"numinlets" : 1,
					"numoutlets" : 1,
					"outlettype" : [ "" ],
					"patching_rect" : [ 26.0, 352.0, 125.0, 22.0 ],
					"text" : "loadmess outputvalue"
				}

			}
, 			{
				"box" : 				{
					"automation" : "\"Chan 2 Off\"",
					"automationon" : "\"Chan 2 On\"",
					"id" : "obj-14",
					"maxclass" : "live.text",
					"numinlets" : 1,
					"numoutlets" : 2,
					"outlettype" : [ "", "" ],
					"parameter_enable" : 1,
					"patching_rect" : [ 289.0, 379.0, 57.0, 17.0 ],
					"presentation" : 1,
					"presentation_rect" : [ 56.438901189300736, 119.0, 38.0, 17.0 ],
					"saved_attribute_attributes" : 					{
						"valueof" : 						{
							"parameter_enum" : [ "\"Chan 2 Off\"", "\"Chan 2 On\"" ],
							"parameter_initial" : [ 1 ],
							"parameter_initial_enable" : 1,
							"parameter_linknames" : 1,
							"parameter_longname" : "chan2-enable",
							"parameter_mmax" : 1,
							"parameter_shortname" : "chan2",
							"parameter_type" : 2
						}

					}
,
					"text" : "Chan 2",
					"texton" : "Chan 2",
					"varname" : "chan2-enable"
				}

			}
, 			{
				"box" : 				{
					"automation" : "\"Chan 1 Off\"",
					"automationon" : "\"Chan 1 On\"",
					"id" : "obj-6",
					"maxclass" : "live.text",
					"numinlets" : 1,
					"numoutlets" : 2,
					"outlettype" : [ "", "" ],
					"parameter_enable" : 1,
					"patching_rect" : [ 26.0, 382.600004971027374, 57.0, 17.0 ],
					"presentation" : 1,
					"presentation_rect" : [ 16.438901189300736, 119.0, 38.0, 17.0 ],
					"saved_attribute_attributes" : 					{
						"valueof" : 						{
							"parameter_enum" : [ "\"Chan 1 Off\"", "\"Chan 1 On\"" ],
							"parameter_initial" : [ 1 ],
							"parameter_initial_enable" : 1,
							"parameter_linknames" : 1,
							"parameter_longname" : "chan1-enable",
							"parameter_mmax" : 1,
							"parameter_shortname" : "chan1",
							"parameter_type" : 2
						}

					}
,
					"text" : "Chan 1",
					"texton" : "Chan 1",
					"varname" : "chan1-enable"
				}

			}
, 			{
				"box" : 				{
					"id" : "obj-5",
					"maxclass" : "newobj",
					"numinlets" : 2,
					"numoutlets" : 1,
					"outlettype" : [ "" ],
					"patching_rect" : [ 26.0, 493.0, 92.0, 22.0 ],
					"text" : "gate"
				}

			}
, 			{
				"box" : 				{
					"id" : "obj-4",
					"maxclass" : "newobj",
					"numinlets" : 0,
					"numoutlets" : 1,
					"outlettype" : [ "" ],
					"patching_rect" : [ 165.5, 445.0, 56.0, 22.0 ],
					"text" : "r #0-msg"
				}

			}
, 			{
				"box" : 				{
					"id" : "obj-18",
					"maxclass" : "newobj",
					"numinlets" : 1,
					"numoutlets" : 0,
					"patching_rect" : [ 26.0, 268.399995028972626, 58.0, 22.0 ],
					"text" : "s #0-msg"
				}

			}
, 			{
				"box" : 				{
					"id" : "obj-17",
					"maxclass" : "newobj",
					"numinlets" : 1,
					"numoutlets" : 0,
					"patching_rect" : [ 202.0, 266.899995028972626, 58.0, 22.0 ],
					"text" : "s #0-msg"
				}

			}
, 			{
				"box" : 				{
					"id" : "obj-16",
					"maxclass" : "newobj",
					"numinlets" : 0,
					"numoutlets" : 1,
					"outlettype" : [ "" ],
					"patching_rect" : [ 676.0, 361.0, 56.0, 22.0 ],
					"text" : "r #0-msg"
				}

			}
, 			{
				"box" : 				{
					"id" : "obj-15",
					"maxclass" : "newobj",
					"numinlets" : 1,
					"numoutlets" : 0,
					"patching_rect" : [ 892.0, 209.0, 58.0, 22.0 ],
					"text" : "s #0-msg"
				}

			}
, 			{
				"box" : 				{
					"color" : [ 1.0, 0.788235294117647, 0.337254901960784, 1.0 ],
					"id" : "obj-13",
					"maxclass" : "newobj",
					"numinlets" : 0,
					"numoutlets" : 1,
					"outlettype" : [ "" ],
					"patching_rect" : [ 768.0, 361.0, 74.0, 22.0 ],
					"text" : "r #0-oscmidi"
				}

			}
, 			{
				"box" : 				{
					"id" : "obj-12",
					"maxclass" : "newobj",
					"numinlets" : 1,
					"numoutlets" : 1,
					"outlettype" : [ "" ],
					"patching_rect" : [ 892.0, 166.399995028972626, 57.0, 22.0 ],
					"text" : "tosymbol"
				}

			}
, 			{
				"box" : 				{
					"appearance" : 3,
					"id" : "obj-11",
					"maxclass" : "live.dial",
					"numinlets" : 1,
					"numoutlets" : 2,
					"outlettype" : [ "", "float" ],
					"parameter_enable" : 1,
					"patching_rect" : [ 892.0, 37.399995028972626, 50.0, 63.0 ],
					"presentation" : 1,
					"presentation_rect" : [ 27.938901189300736, 29.0, 50.0, 63.0 ],
					"saved_attribute_attributes" : 					{
						"valueof" : 						{
							"parameter_initial" : [ 1 ],
							"parameter_initial_enable" : 1,
							"parameter_linknames" : 1,
							"parameter_longname" : "Master",
							"parameter_mmax" : 1.0,
							"parameter_shortname" : "Master",
							"parameter_type" : 0,
							"parameter_unitstyle" : 1
						}

					}
,
					"varname" : "Master"
				}

			}
, 			{
				"box" : 				{
					"id" : "obj-10",
					"maxclass" : "message",
					"numinlets" : 2,
					"numoutlets" : 1,
					"outlettype" : [ "" ],
					"patching_rect" : [ 892.0, 129.399995028972626, 62.0, 22.0 ],
					"text" : "master $1"
				}

			}
, 			{
				"box" : 				{
					"comment" : "messages",
					"id" : "obj-9",
					"index" : 0,
					"maxclass" : "outlet",
					"numinlets" : 1,
					"numoutlets" : 0,
					"patching_rect" : [ 768.0, 459.0, 30.0, 30.0 ]
				}

			}
, 			{
				"box" : 				{
					"id" : "obj-8",
					"maxclass" : "newobj",
					"numinlets" : 1,
					"numoutlets" : 1,
					"outlettype" : [ "" ],
					"patching_rect" : [ 676.0, 389.0, 71.0, 22.0 ],
					"text" : "fromsymbol"
				}

			}
, 			{
				"box" : 				{
					"automation" : "update all off",
					"automationon" : "update all on",
					"id" : "obj-87",
					"maxclass" : "live.text",
					"mode" : 0,
					"numinlets" : 1,
					"numoutlets" : 2,
					"outlettype" : [ "", "" ],
					"parameter_enable" : 1,
					"patching_rect" : [ 26.0, 24.75, 99.0, 13.5 ],
					"presentation" : 1,
					"presentation_rect" : [ 11.0, 6.0, 83.877802378601473, 19.5 ],
					"saved_attribute_attributes" : 					{
						"valueof" : 						{
							"parameter_enum" : [ "update all off", "update all on" ],
							"parameter_linknames" : 1,
							"parameter_longname" : "Update All",
							"parameter_mmax" : 1,
							"parameter_shortname" : "Update All",
							"parameter_type" : 2
						}

					}
,
					"text" : "UPDATE ALL",
					"varname" : "Update All"
				}

			}
, 			{
				"box" : 				{
					"id" : "obj-7",
					"maxclass" : "newobj",
					"numinlets" : 1,
					"numoutlets" : 1,
					"outlettype" : [ "" ],
					"patcher" : 					{
						"fileversion" : 1,
						"appversion" : 						{
							"major" : 8,
							"minor" : 5,
							"revision" : 6,
							"architecture" : "x64",
							"modernui" : 1
						}
,
						"classnamespace" : "box",
						"rect" : [ 59.0, 118.0, 640.0, 480.0 ],
						"bglocked" : 0,
						"openinpresentation" : 0,
						"default_fontsize" : 12.0,
						"default_fontface" : 0,
						"default_fontname" : "Arial",
						"gridonopen" : 1,
						"gridsize" : [ 15.0, 15.0 ],
						"gridsnaponopen" : 1,
						"objectsnaponopen" : 1,
						"statusbarvisible" : 2,
						"toolbarvisible" : 1,
						"lefttoolbarpinned" : 0,
						"toptoolbarpinned" : 0,
						"righttoolbarpinned" : 0,
						"bottomtoolbarpinned" : 0,
						"toolbars_unpinned_last_save" : 0,
						"tallnewobj" : 0,
						"boxanimatetime" : 200,
						"enablehscroll" : 1,
						"enablevscroll" : 1,
						"devicewidth" : 0.0,
						"description" : "",
						"digest" : "",
						"tags" : "",
						"style" : "",
						"subpatcher_template" : "",
						"assistshowspatchername" : 0,
						"boxes" : [ 							{
								"box" : 								{
									"id" : "obj-61",
									"maxclass" : "message",
									"numinlets" : 2,
									"numoutlets" : 1,
									"outlettype" : [ "" ],
									"patching_rect" : [ 149.5, 326.5, 29.5, 22.0 ],
									"text" : "$2"
								}

							}
, 							{
								"box" : 								{
									"id" : "obj-97",
									"maxclass" : "newobj",
									"numinlets" : 2,
									"numoutlets" : 2,
									"outlettype" : [ "", "" ],
									"patching_rect" : [ 66.0, 292.5, 101.0, 22.0 ],
									"text" : "route 0"
								}

							}
, 							{
								"box" : 								{
									"id" : "obj-96",
									"maxclass" : "newobj",
									"numinlets" : 2,
									"numoutlets" : 1,
									"outlettype" : [ "int" ],
									"patching_rect" : [ 82.0, 183.5, 29.5, 22.0 ],
									"text" : "> 0"
								}

							}
, 							{
								"box" : 								{
									"id" : "obj-94",
									"maxclass" : "newobj",
									"numinlets" : 2,
									"numoutlets" : 1,
									"outlettype" : [ "" ],
									"patching_rect" : [ 66.0, 221.5, 35.0, 22.0 ],
									"text" : "join"
								}

							}
, 							{
								"box" : 								{
									"id" : "obj-93",
									"maxclass" : "newobj",
									"numinlets" : 1,
									"numoutlets" : 3,
									"outlettype" : [ "", "", "" ],
									"patching_rect" : [ 50.0, 100.0, 83.0, 22.0 ],
									"text" : "unjoin"
								}

							}
, 							{
								"box" : 								{
									"id" : "obj-91",
									"maxclass" : "newobj",
									"numinlets" : 2,
									"numoutlets" : 3,
									"outlettype" : [ "int", "int", "int" ],
									"patching_rect" : [ 50.0, 145.0, 51.0, 22.0 ],
									"text" : "poly 1 1"
								}

							}
, 							{
								"box" : 								{
									"id" : "obj-90",
									"maxclass" : "newobj",
									"numinlets" : 2,
									"numoutlets" : 2,
									"outlettype" : [ "", "" ],
									"patching_rect" : [ 66.0, 256.5, 37.0, 22.0 ],
									"text" : "zl.rev"
								}

							}
, 							{
								"box" : 								{
									"id" : "obj-87",
									"maxclass" : "message",
									"numinlets" : 2,
									"numoutlets" : 1,
									"outlettype" : [ "" ],
									"patching_rect" : [ 66.0, 371.5, 80.0, 22.0 ],
									"text" : "oscnoteoff $1"
								}

							}
, 							{
								"box" : 								{
									"id" : "obj-83",
									"maxclass" : "message",
									"numinlets" : 2,
									"numoutlets" : 1,
									"outlettype" : [ "" ],
									"patching_rect" : [ 155.0, 371.5, 81.0, 22.0 ],
									"text" : "oscnoteon $1"
								}

							}
, 							{
								"box" : 								{
									"comment" : "",
									"id" : "obj-5",
									"index" : 1,
									"maxclass" : "inlet",
									"numinlets" : 0,
									"numoutlets" : 1,
									"outlettype" : [ "" ],
									"patching_rect" : [ 50.0, 40.0, 30.0, 30.0 ]
								}

							}
, 							{
								"box" : 								{
									"comment" : "",
									"id" : "obj-6",
									"index" : 1,
									"maxclass" : "outlet",
									"numinlets" : 1,
									"numoutlets" : 0,
									"patching_rect" : [ 104.5, 453.5, 30.0, 30.0 ]
								}

							}
 ],
						"lines" : [ 							{
								"patchline" : 								{
									"destination" : [ "obj-93", 0 ],
									"source" : [ "obj-5", 0 ]
								}

							}
, 							{
								"patchline" : 								{
									"destination" : [ "obj-83", 0 ],
									"source" : [ "obj-61", 0 ]
								}

							}
, 							{
								"patchline" : 								{
									"destination" : [ "obj-6", 0 ],
									"source" : [ "obj-83", 0 ]
								}

							}
, 							{
								"patchline" : 								{
									"destination" : [ "obj-6", 0 ],
									"source" : [ "obj-87", 0 ]
								}

							}
, 							{
								"patchline" : 								{
									"destination" : [ "obj-97", 0 ],
									"source" : [ "obj-90", 0 ]
								}

							}
, 							{
								"patchline" : 								{
									"destination" : [ "obj-94", 0 ],
									"source" : [ "obj-91", 1 ]
								}

							}
, 							{
								"patchline" : 								{
									"destination" : [ "obj-96", 0 ],
									"source" : [ "obj-91", 2 ]
								}

							}
, 							{
								"patchline" : 								{
									"destination" : [ "obj-91", 1 ],
									"source" : [ "obj-93", 1 ]
								}

							}
, 							{
								"patchline" : 								{
									"destination" : [ "obj-91", 0 ],
									"source" : [ "obj-93", 0 ]
								}

							}
, 							{
								"patchline" : 								{
									"destination" : [ "obj-90", 0 ],
									"source" : [ "obj-94", 0 ]
								}

							}
, 							{
								"patchline" : 								{
									"destination" : [ "obj-94", 1 ],
									"source" : [ "obj-96", 0 ]
								}

							}
, 							{
								"patchline" : 								{
									"destination" : [ "obj-61", 0 ],
									"source" : [ "obj-97", 1 ]
								}

							}
, 							{
								"patchline" : 								{
									"destination" : [ "obj-87", 0 ],
									"source" : [ "obj-97", 0 ]
								}

							}
 ]
					}
,
					"patching_rect" : [ 1002.0, 204.899995028972626, 86.0, 22.0 ],
					"saved_object_attributes" : 					{
						"description" : "",
						"digest" : "",
						"globalpatchername" : "",
						"tags" : ""
					}
,
					"text" : "p format-notes"
				}

			}
, 			{
				"box" : 				{
					"color" : [ 1.0, 0.788235294117647, 0.337254901960784, 1.0 ],
					"id" : "obj-98",
					"maxclass" : "newobj",
					"numinlets" : 1,
					"numoutlets" : 0,
					"patching_rect" : [ 1002.0, 260.299990057945251, 76.0, 22.0 ],
					"text" : "s #0-oscmidi"
				}

			}
, 			{
				"box" : 				{
					"comment" : "notein",
					"id" : "obj-2",
					"index" : 0,
					"maxclass" : "inlet",
					"numinlets" : 0,
					"numoutlets" : 1,
					"outlettype" : [ "" ],
					"patching_rect" : [ 1002.0, 157.399995028972626, 30.0, 30.0 ]
				}

			}
, 			{
				"box" : 				{
					"comment" : "messages",
					"id" : "obj-1",
					"index" : 0,
					"maxclass" : "outlet",
					"numinlets" : 1,
					"numoutlets" : 0,
					"patching_rect" : [ 26.0, 606.5, 30.0, 30.0 ]
				}

			}
, 			{
				"box" : 				{
					"id" : "obj-66",
					"maxclass" : "newobj",
					"numinlets" : 1,
					"numoutlets" : 1,
					"outlettype" : [ "" ],
					"patching_rect" : [ 99.0, 445.0, 57.0, 22.0 ],
					"text" : "tosymbol"
				}

			}
, 			{
				"box" : 				{
					"color" : [ 1.0, 0.788235294117647, 0.337254901960784, 1.0 ],
					"id" : "obj-42",
					"maxclass" : "newobj",
					"numinlets" : 0,
					"numoutlets" : 1,
					"outlettype" : [ "" ],
					"patching_rect" : [ 99.0, 415.0, 74.0, 22.0 ],
					"text" : "r #0-oscmidi"
				}

			}
, 			{
				"box" : 				{
					"id" : "obj-74",
					"maxclass" : "newobj",
					"numinlets" : 1,
					"numoutlets" : 1,
					"outlettype" : [ "" ],
					"patcher" : 					{
						"fileversion" : 1,
						"appversion" : 						{
							"major" : 8,
							"minor" : 5,
							"revision" : 6,
							"architecture" : "x64",
							"modernui" : 1
						}
,
						"classnamespace" : "box",
						"rect" : [ 59.0, 118.0, 640.0, 480.0 ],
						"bglocked" : 0,
						"openinpresentation" : 0,
						"default_fontsize" : 12.0,
						"default_fontface" : 0,
						"default_fontname" : "Arial",
						"gridonopen" : 1,
						"gridsize" : [ 15.0, 15.0 ],
						"gridsnaponopen" : 1,
						"objectsnaponopen" : 1,
						"statusbarvisible" : 2,
						"toolbarvisible" : 1,
						"lefttoolbarpinned" : 0,
						"toptoolbarpinned" : 0,
						"righttoolbarpinned" : 0,
						"bottomtoolbarpinned" : 0,
						"toolbars_unpinned_last_save" : 0,
						"tallnewobj" : 0,
						"boxanimatetime" : 200,
						"enablehscroll" : 1,
						"enablevscroll" : 1,
						"devicewidth" : 0.0,
						"description" : "",
						"digest" : "",
						"tags" : "",
						"style" : "",
						"subpatcher_template" : "",
						"assistshowspatchername" : 0,
						"boxes" : [ 							{
								"box" : 								{
									"id" : "obj-66",
									"maxclass" : "newobj",
									"numinlets" : 2,
									"numoutlets" : 2,
									"outlettype" : [ "", "" ],
									"patching_rect" : [ 50.0, 100.0, 37.0, 22.0 ],
									"text" : "zl.rev"
								}

							}
, 							{
								"box" : 								{
									"id" : "obj-48",
									"maxclass" : "newobj",
									"numinlets" : 2,
									"numoutlets" : 1,
									"outlettype" : [ "" ],
									"patching_rect" : [ 50.0, 137.0, 104.0, 22.0 ],
									"text" : "sprintf chan%i/%s"
								}

							}
, 							{
								"box" : 								{
									"comment" : "",
									"id" : "obj-72",
									"index" : 1,
									"maxclass" : "inlet",
									"numinlets" : 0,
									"numoutlets" : 1,
									"outlettype" : [ "" ],
									"patching_rect" : [ 50.0, 40.0, 30.0, 30.0 ]
								}

							}
, 							{
								"box" : 								{
									"comment" : "",
									"id" : "obj-73",
									"index" : 1,
									"maxclass" : "outlet",
									"numinlets" : 1,
									"numoutlets" : 0,
									"patching_rect" : [ 50.0, 219.0, 30.0, 30.0 ]
								}

							}
 ],
						"lines" : [ 							{
								"patchline" : 								{
									"destination" : [ "obj-73", 0 ],
									"source" : [ "obj-48", 0 ]
								}

							}
, 							{
								"patchline" : 								{
									"destination" : [ "obj-48", 0 ],
									"source" : [ "obj-66", 0 ]
								}

							}
, 							{
								"patchline" : 								{
									"destination" : [ "obj-66", 0 ],
									"source" : [ "obj-72", 0 ]
								}

							}
 ]
					}
,
					"patching_rect" : [ 26.0, 569.0, 53.0, 22.0 ],
					"saved_object_attributes" : 					{
						"description" : "",
						"digest" : "",
						"globalpatchername" : "",
						"tags" : ""
					}
,
					"text" : "p format"
				}

			}
, 			{
				"box" : 				{
					"id" : "obj-71",
					"maxclass" : "newobj",
					"numinlets" : 1,
					"numoutlets" : 1,
					"outlettype" : [ "" ],
					"patcher" : 					{
						"fileversion" : 1,
						"appversion" : 						{
							"major" : 8,
							"minor" : 5,
							"revision" : 6,
							"architecture" : "x64",
							"modernui" : 1
						}
,
						"classnamespace" : "box",
						"rect" : [ 59.0, 118.0, 640.0, 480.0 ],
						"bglocked" : 0,
						"openinpresentation" : 0,
						"default_fontsize" : 12.0,
						"default_fontface" : 0,
						"default_fontname" : "Arial",
						"gridonopen" : 1,
						"gridsize" : [ 15.0, 15.0 ],
						"gridsnaponopen" : 1,
						"objectsnaponopen" : 1,
						"statusbarvisible" : 2,
						"toolbarvisible" : 1,
						"lefttoolbarpinned" : 0,
						"toptoolbarpinned" : 0,
						"righttoolbarpinned" : 0,
						"bottomtoolbarpinned" : 0,
						"toolbars_unpinned_last_save" : 0,
						"tallnewobj" : 0,
						"boxanimatetime" : 200,
						"enablehscroll" : 1,
						"enablevscroll" : 1,
						"devicewidth" : 0.0,
						"description" : "",
						"digest" : "",
						"tags" : "",
						"style" : "",
						"subpatcher_template" : "",
						"assistshowspatchername" : 0,
						"boxes" : [ 							{
								"box" : 								{
									"id" : "obj-74",
									"maxclass" : "newobj",
									"numinlets" : 1,
									"numoutlets" : 1,
									"outlettype" : [ "" ],
									"patching_rect" : [ 50.0, 172.0, 57.0, 22.0 ],
									"text" : "tosymbol"
								}

							}
, 							{
								"box" : 								{
									"id" : "obj-63",
									"maxclass" : "newobj",
									"numinlets" : 1,
									"numoutlets" : 1,
									"outlettype" : [ "" ],
									"patching_rect" : [ 51.0, 136.0, 107.0, 22.0 ],
									"text" : "sprintf sampler/%s"
								}

							}
, 							{
								"box" : 								{
									"id" : "obj-64",
									"maxclass" : "newobj",
									"numinlets" : 1,
									"numoutlets" : 1,
									"outlettype" : [ "" ],
									"patching_rect" : [ 51.0, 100.0, 57.0, 22.0 ],
									"text" : "tosymbol"
								}

							}
, 							{
								"box" : 								{
									"comment" : "",
									"id" : "obj-69",
									"index" : 1,
									"maxclass" : "inlet",
									"numinlets" : 0,
									"numoutlets" : 1,
									"outlettype" : [ "" ],
									"patching_rect" : [ 51.0, 40.0, 30.0, 30.0 ]
								}

							}
, 							{
								"box" : 								{
									"comment" : "",
									"id" : "obj-70",
									"index" : 1,
									"maxclass" : "outlet",
									"numinlets" : 1,
									"numoutlets" : 0,
									"patching_rect" : [ 50.0, 254.0, 30.0, 30.0 ]
								}

							}
 ],
						"lines" : [ 							{
								"patchline" : 								{
									"destination" : [ "obj-74", 0 ],
									"source" : [ "obj-63", 0 ]
								}

							}
, 							{
								"patchline" : 								{
									"destination" : [ "obj-63", 0 ],
									"source" : [ "obj-64", 0 ]
								}

							}
, 							{
								"patchline" : 								{
									"destination" : [ "obj-64", 0 ],
									"source" : [ "obj-69", 0 ]
								}

							}
, 							{
								"patchline" : 								{
									"destination" : [ "obj-70", 0 ],
									"source" : [ "obj-74", 0 ]
								}

							}
 ]
					}
,
					"patching_rect" : [ 26.0, 238.399995028972626, 53.0, 22.0 ],
					"saved_object_attributes" : 					{
						"description" : "",
						"digest" : "",
						"globalpatchername" : "",
						"tags" : ""
					}
,
					"text" : "p format"
				}

			}
, 			{
				"box" : 				{
					"id" : "obj-62",
					"maxclass" : "newobj",
					"numinlets" : 1,
					"numoutlets" : 1,
					"outlettype" : [ "" ],
					"patcher" : 					{
						"fileversion" : 1,
						"appversion" : 						{
							"major" : 8,
							"minor" : 5,
							"revision" : 6,
							"architecture" : "x64",
							"modernui" : 1
						}
,
						"classnamespace" : "box",
						"rect" : [ 59.0, 118.0, 640.0, 480.0 ],
						"bglocked" : 0,
						"openinpresentation" : 0,
						"default_fontsize" : 12.0,
						"default_fontface" : 0,
						"default_fontname" : "Arial",
						"gridonopen" : 1,
						"gridsize" : [ 15.0, 15.0 ],
						"gridsnaponopen" : 1,
						"objectsnaponopen" : 1,
						"statusbarvisible" : 2,
						"toolbarvisible" : 1,
						"lefttoolbarpinned" : 0,
						"toptoolbarpinned" : 0,
						"righttoolbarpinned" : 0,
						"bottomtoolbarpinned" : 0,
						"toolbars_unpinned_last_save" : 0,
						"tallnewobj" : 0,
						"boxanimatetime" : 200,
						"enablehscroll" : 1,
						"enablevscroll" : 1,
						"devicewidth" : 0.0,
						"description" : "",
						"digest" : "",
						"tags" : "",
						"style" : "",
						"subpatcher_template" : "",
						"assistshowspatchername" : 0,
						"boxes" : [ 							{
								"box" : 								{
									"id" : "obj-75",
									"maxclass" : "newobj",
									"numinlets" : 1,
									"numoutlets" : 1,
									"outlettype" : [ "" ],
									"patching_rect" : [ 50.0, 172.0, 57.0, 22.0 ],
									"text" : "tosymbol"
								}

							}
, 							{
								"box" : 								{
									"id" : "obj-58",
									"maxclass" : "newobj",
									"numinlets" : 1,
									"numoutlets" : 1,
									"outlettype" : [ "" ],
									"patching_rect" : [ 50.0, 137.0, 93.0, 22.0 ],
									"text" : "sprintf synth/%s"
								}

							}
, 							{
								"box" : 								{
									"id" : "obj-46",
									"maxclass" : "newobj",
									"numinlets" : 1,
									"numoutlets" : 1,
									"outlettype" : [ "" ],
									"patching_rect" : [ 50.0, 100.0, 57.0, 22.0 ],
									"text" : "tosymbol"
								}

							}
, 							{
								"box" : 								{
									"comment" : "",
									"id" : "obj-60",
									"index" : 1,
									"maxclass" : "inlet",
									"numinlets" : 0,
									"numoutlets" : 1,
									"outlettype" : [ "" ],
									"patching_rect" : [ 50.0, 40.0, 30.0, 30.0 ]
								}

							}
, 							{
								"box" : 								{
									"comment" : "",
									"id" : "obj-61",
									"index" : 1,
									"maxclass" : "outlet",
									"numinlets" : 1,
									"numoutlets" : 0,
									"patching_rect" : [ 50.0, 254.0, 30.0, 30.0 ]
								}

							}
 ],
						"lines" : [ 							{
								"patchline" : 								{
									"destination" : [ "obj-58", 0 ],
									"source" : [ "obj-46", 0 ]
								}

							}
, 							{
								"patchline" : 								{
									"destination" : [ "obj-75", 0 ],
									"source" : [ "obj-58", 0 ]
								}

							}
, 							{
								"patchline" : 								{
									"destination" : [ "obj-46", 0 ],
									"source" : [ "obj-60", 0 ]
								}

							}
, 							{
								"patchline" : 								{
									"destination" : [ "obj-61", 0 ],
									"source" : [ "obj-75", 0 ]
								}

							}
 ]
					}
,
					"patching_rect" : [ 202.0, 238.399995028972626, 53.0, 22.0 ],
					"saved_object_attributes" : 					{
						"description" : "",
						"digest" : "",
						"globalpatchername" : "",
						"tags" : ""
					}
,
					"text" : "p format"
				}

			}
, 			{
				"box" : 				{
					"id" : "obj-65",
					"maxclass" : "newobj",
					"numinlets" : 2,
					"numoutlets" : 1,
					"outlettype" : [ "" ],
					"patching_rect" : [ 26.0, 526.0, 53.0, 22.0 ],
					"text" : "pack s 1"
				}

			}
, 			{
				"box" : 				{
					"bgmode" : 0,
					"border" : 0,
					"clickthrough" : 0,
					"enablehscroll" : 0,
					"enablevscroll" : 0,
					"id" : "obj-92",
					"lockeddragscroll" : 0,
					"lockedsize" : 0,
					"maxclass" : "bpatcher",
					"name" : "ynl.nodesamplerGUI.maxpat",
					"numinlets" : 1,
					"numoutlets" : 1,
					"offset" : [ 0.0, 0.0 ],
					"outlettype" : [ "" ],
					"patching_rect" : [ 26.0, 71.5, 159.5, 145.0 ],
					"presentation" : 1,
					"presentation_rect" : [ 111.422246320380225, 4.0, 139.5, 145.0 ],
					"viewvisibility" : 1
				}

			}
, 			{
				"box" : 				{
					"bgmode" : 0,
					"border" : 0,
					"clickthrough" : 0,
					"enablehscroll" : 0,
					"enablevscroll" : 0,
					"id" : "obj-3",
					"lockeddragscroll" : 0,
					"lockedsize" : 0,
					"maxclass" : "bpatcher",
					"name" : "ynl.nodesynthGUI.maxpat",
					"numinlets" : 1,
					"numoutlets" : 1,
					"offset" : [ 0.0, 0.0 ],
					"outlettype" : [ "" ],
					"patching_rect" : [ 202.0, 71.5, 680.25, 145.0 ],
					"presentation" : 1,
					"presentation_rect" : [ 252.922246320380225, 4.0, 654.25, 145.0 ],
					"viewvisibility" : 1
				}

			}
 ],
		"lines" : [ 			{
				"patchline" : 				{
					"destination" : [ "obj-12", 0 ],
					"source" : [ "obj-10", 0 ]
				}

			}
, 			{
				"patchline" : 				{
					"destination" : [ "obj-10", 0 ],
					"source" : [ "obj-11", 0 ]
				}

			}
, 			{
				"patchline" : 				{
					"destination" : [ "obj-15", 0 ],
					"source" : [ "obj-12", 0 ]
				}

			}
, 			{
				"patchline" : 				{
					"destination" : [ "obj-9", 0 ],
					"source" : [ "obj-13", 0 ]
				}

			}
, 			{
				"patchline" : 				{
					"destination" : [ "obj-21", 0 ],
					"order" : 1,
					"source" : [ "obj-14", 0 ]
				}

			}
, 			{
				"patchline" : 				{
					"destination" : [ "obj-30", 1 ],
					"order" : 0,
					"source" : [ "obj-14", 0 ]
				}

			}
, 			{
				"patchline" : 				{
					"destination" : [ "obj-8", 0 ],
					"source" : [ "obj-16", 0 ]
				}

			}
, 			{
				"patchline" : 				{
					"destination" : [ "obj-6", 0 ],
					"source" : [ "obj-19", 0 ]
				}

			}
, 			{
				"patchline" : 				{
					"destination" : [ "obj-7", 0 ],
					"source" : [ "obj-2", 0 ]
				}

			}
, 			{
				"patchline" : 				{
					"destination" : [ "obj-14", 0 ],
					"source" : [ "obj-20", 0 ]
				}

			}
, 			{
				"patchline" : 				{
					"destination" : [ "obj-25", 0 ],
					"source" : [ "obj-21", 0 ]
				}

			}
, 			{
				"patchline" : 				{
					"destination" : [ "obj-21", 1 ],
					"source" : [ "obj-22", 0 ]
				}

			}
, 			{
				"patchline" : 				{
					"destination" : [ "obj-21", 1 ],
					"source" : [ "obj-23", 0 ]
				}

			}
, 			{
				"patchline" : 				{
					"destination" : [ "obj-23", 0 ],
					"source" : [ "obj-24", 0 ]
				}

			}
, 			{
				"patchline" : 				{
					"destination" : [ "obj-74", 0 ],
					"source" : [ "obj-25", 0 ]
				}

			}
, 			{
				"patchline" : 				{
					"destination" : [ "obj-29", 0 ],
					"order" : 0,
					"source" : [ "obj-27", 0 ]
				}

			}
, 			{
				"patchline" : 				{
					"destination" : [ "obj-35", 0 ],
					"order" : 1,
					"source" : [ "obj-27", 0 ]
				}

			}
, 			{
				"patchline" : 				{
					"destination" : [ "obj-37", 0 ],
					"source" : [ "obj-28", 0 ]
				}

			}
, 			{
				"patchline" : 				{
					"destination" : [ "obj-31", 0 ],
					"source" : [ "obj-29", 0 ]
				}

			}
, 			{
				"patchline" : 				{
					"destination" : [ "obj-62", 0 ],
					"source" : [ "obj-3", 0 ]
				}

			}
, 			{
				"patchline" : 				{
					"destination" : [ "obj-26", 0 ],
					"source" : [ "obj-30", 0 ]
				}

			}
, 			{
				"patchline" : 				{
					"destination" : [ "obj-28", 0 ],
					"source" : [ "obj-31", 0 ]
				}

			}
, 			{
				"patchline" : 				{
					"destination" : [ "obj-28", 0 ],
					"source" : [ "obj-35", 0 ]
				}

			}
, 			{
				"patchline" : 				{
					"destination" : [ "obj-98", 0 ],
					"source" : [ "obj-37", 0 ]
				}

			}
, 			{
				"patchline" : 				{
					"destination" : [ "obj-5", 1 ],
					"source" : [ "obj-4", 0 ]
				}

			}
, 			{
				"patchline" : 				{
					"destination" : [ "obj-66", 0 ],
					"source" : [ "obj-42", 0 ]
				}

			}
, 			{
				"patchline" : 				{
					"destination" : [ "obj-65", 0 ],
					"source" : [ "obj-5", 0 ]
				}

			}
, 			{
				"patchline" : 				{
					"destination" : [ "obj-30", 0 ],
					"order" : 0,
					"source" : [ "obj-6", 0 ]
				}

			}
, 			{
				"patchline" : 				{
					"destination" : [ "obj-5", 0 ],
					"order" : 1,
					"source" : [ "obj-6", 0 ]
				}

			}
, 			{
				"patchline" : 				{
					"destination" : [ "obj-17", 0 ],
					"source" : [ "obj-62", 0 ]
				}

			}
, 			{
				"patchline" : 				{
					"destination" : [ "obj-74", 0 ],
					"source" : [ "obj-65", 0 ]
				}

			}
, 			{
				"patchline" : 				{
					"destination" : [ "obj-5", 1 ],
					"source" : [ "obj-66", 0 ]
				}

			}
, 			{
				"patchline" : 				{
					"destination" : [ "obj-98", 0 ],
					"source" : [ "obj-7", 0 ]
				}

			}
, 			{
				"patchline" : 				{
					"destination" : [ "obj-18", 0 ],
					"source" : [ "obj-71", 0 ]
				}

			}
, 			{
				"patchline" : 				{
					"destination" : [ "obj-1", 0 ],
					"source" : [ "obj-74", 0 ]
				}

			}
, 			{
				"patchline" : 				{
					"destination" : [ "obj-9", 0 ],
					"source" : [ "obj-8", 0 ]
				}

			}
, 			{
				"patchline" : 				{
					"destination" : [ "obj-3", 0 ],
					"order" : 1,
					"source" : [ "obj-87", 0 ]
				}

			}
, 			{
				"patchline" : 				{
					"destination" : [ "obj-92", 0 ],
					"order" : 0,
					"source" : [ "obj-87", 0 ]
				}

			}
, 			{
				"patchline" : 				{
					"destination" : [ "obj-71", 0 ],
					"source" : [ "obj-92", 0 ]
				}

			}
 ],
		"parameters" : 		{
			"obj-11" : [ "Master", "Master", 0 ],
			"obj-14" : [ "chan2-enable", "chan2", 0 ],
			"obj-27" : [ "Stop Notes", "Stop", 0 ],
			"obj-3::obj-110" : [ "Gain", "Gain", 0 ],
			"obj-3::obj-114" : [ "osc-freq[1]", "Osc Freq", 0 ],
			"obj-3::obj-119" : [ "noise", "Noise", 0 ],
			"obj-3::obj-122" : [ "Oscillator Gain", "Osc Gain", 0 ],
			"obj-3::obj-123" : [ "detune", "Detune", 0 ],
			"obj-3::obj-143" : [ "Pitch-LFO-Freq", "Pitch LFO Freq.", 0 ],
			"obj-3::obj-144" : [ "Pitch-LFO-Depth", "Pitch LFO Depth", 0 ],
			"obj-3::obj-172" : [ "Release", "Release", 0 ],
			"obj-3::obj-173" : [ "Decay", "Decay", 0 ],
			"obj-3::obj-174" : [ "Attack", "Attack", 0 ],
			"obj-3::obj-175" : [ "Sustain", "Sustain", 0 ],
			"obj-3::obj-18" : [ "filter-on", "Filter Enable", 0 ],
			"obj-3::obj-185" : [ "Boost", "Clip", 0 ],
			"obj-3::obj-22" : [ "filter-rate", "Filter Rate", 0 ],
			"obj-3::obj-24" : [ "Filter Range", "Filter LFO Range", 0 ],
			"obj-3::obj-32" : [ "pitch-decay", "Pitch Decay", 0 ],
			"obj-3::obj-47" : [ "pitch-start[1]", "Pitch Start", 0 ],
			"obj-3::obj-51" : [ "Glide", "Glide", 0 ],
			"obj-3::obj-53" : [ "LFO-Freq", "Gain LFO Freq", 0 ],
			"obj-3::obj-55" : [ "LFO-Depth", "Gain LFO Depth", 0 ],
			"obj-3::obj-61" : [ "Filter LFO Retrigger", "Filter LFO Retrigger", 0 ],
			"obj-3::obj-62" : [ "filtermode", "Filter Mode", 0 ],
			"obj-3::obj-77" : [ "q", "Filter Q", 0 ],
			"obj-3::obj-78" : [ "Gain LFO Retrigger", "Gain LFO Retrigger", 0 ],
			"obj-3::obj-79" : [ "filter-cutoff", "Filter Cut Off", 0 ],
			"obj-3::obj-84" : [ "Pitch LFO Retrigger", "Pitch LFO Retrigger", 0 ],
			"obj-6" : [ "chan1-enable", "chan1", 0 ],
			"obj-87" : [ "Update All", "Update All", 0 ],
			"obj-92::obj-103" : [ "Sample ID", "Sample ID", 0 ],
			"obj-92::obj-110" : [ "Gain[1]", "Sample Gain", 0 ],
			"obj-92::obj-180" : [ "Sample Start", "Sample Start", 0 ],
			"obj-92::obj-91" : [ "Loop Start", "Loop Start", 0 ],
			"obj-92::obj-97" : [ "Sample End", "Duration", 0 ],
			"parameterbanks" : 			{
				"0" : 				{
					"index" : 0,
					"name" : "",
					"parameters" : [ "-", "-", "-", "-", "-", "-", "-", "-" ]
				}

			}
,
			"parameter_overrides" : 			{
				"obj-3::obj-114" : 				{
					"parameter_longname" : "osc-freq[1]"
				}
,
				"obj-3::obj-119" : 				{
					"parameter_longname" : "noise"
				}
,
				"obj-3::obj-123" : 				{
					"parameter_longname" : "detune"
				}
,
				"obj-3::obj-18" : 				{
					"parameter_longname" : "filter-on"
				}
,
				"obj-3::obj-185" : 				{
					"parameter_longname" : "Boost"
				}
,
				"obj-3::obj-22" : 				{
					"parameter_longname" : "filter-rate"
				}
,
				"obj-3::obj-24" : 				{
					"parameter_longname" : "Filter Range"
				}
,
				"obj-3::obj-32" : 				{
					"parameter_longname" : "pitch-decay"
				}
,
				"obj-3::obj-47" : 				{
					"parameter_longname" : "pitch-start[1]"
				}
,
				"obj-3::obj-53" : 				{
					"parameter_longname" : "LFO-Freq"
				}
,
				"obj-3::obj-55" : 				{
					"parameter_longname" : "LFO-Depth"
				}
,
				"obj-3::obj-62" : 				{
					"parameter_longname" : "filtermode"
				}
,
				"obj-3::obj-77" : 				{
					"parameter_longname" : "q"
				}
,
				"obj-3::obj-79" : 				{
					"parameter_longname" : "filter-cutoff"
				}
,
				"obj-92::obj-110" : 				{
					"parameter_longname" : "Gain[1]"
				}
,
				"obj-92::obj-97" : 				{
					"parameter_longname" : "Sample End"
				}

			}
,
			"inherited_shortname" : 1
		}
,
		"dependency_cache" : [ 			{
				"name" : "ynl.nodesamplerGUI.maxpat",
				"bootpath" : "~/repos/you-never-listen/Max",
				"patcherrelativepath" : ".",
				"type" : "JSON",
				"implicit" : 1
			}
, 			{
				"name" : "ynl.nodesynthGUI.maxpat",
				"bootpath" : "~/repos/you-never-listen/Max",
				"patcherrelativepath" : ".",
				"type" : "JSON",
				"implicit" : 1
			}
 ],
		"autosave" : 0
	}

}
