{
	"patcher" : 	{
		"fileversion" : 1,
		"appversion" : 		{
			"major" : 8,
			"minor" : 5,
			"revision" : 6,
			"architecture" : "x64",
			"modernui" : 1
		}
,
		"classnamespace" : "box",
		"rect" : [ 34.0, 99.0, 1198.0, 823.0 ],
		"bglocked" : 0,
		"openinpresentation" : 1,
		"default_fontsize" : 12.0,
		"default_fontface" : 0,
		"default_fontname" : "Arial",
		"gridonopen" : 1,
		"gridsize" : [ 15.0, 15.0 ],
		"gridsnaponopen" : 1,
		"objectsnaponopen" : 1,
		"statusbarvisible" : 2,
		"toolbarvisible" : 1,
		"lefttoolbarpinned" : 0,
		"toptoolbarpinned" : 0,
		"righttoolbarpinned" : 0,
		"bottomtoolbarpinned" : 0,
		"toolbars_unpinned_last_save" : 0,
		"tallnewobj" : 0,
		"boxanimatetime" : 200,
		"enablehscroll" : 1,
		"enablevscroll" : 1,
		"devicewidth" : 0.0,
		"description" : "",
		"digest" : "",
		"tags" : "",
		"style" : "",
		"subpatcher_template" : "",
		"assistshowspatchername" : 0,
		"boxes" : [ 			{
				"box" : 				{
					"id" : "obj-108",
					"maxclass" : "comment",
					"numinlets" : 1,
					"numoutlets" : 0,
					"patching_rect" : [ 92.0, 174.0, 150.0, 20.0 ],
					"presentation" : 1,
					"presentation_rect" : [ 115.33333800236386, 4.333350658416748, 150.0, 20.0 ],
					"text" : "ADSR"
				}

			}
, 			{
				"box" : 				{
					"id" : "obj-103",
					"maxclass" : "comment",
					"numinlets" : 1,
					"numoutlets" : 0,
					"patching_rect" : [ 1649.5, 733.0, 150.0, 20.0 ],
					"presentation" : 1,
					"presentation_rect" : [ 315.833343426386591, 4.333350658416748, 104.0, 20.0 ],
					"text" : "LFO"
				}

			}
, 			{
				"box" : 				{
					"id" : "obj-101",
					"maxclass" : "comment",
					"numinlets" : 1,
					"numoutlets" : 0,
					"patching_rect" : [ 941.5, 990.0, 150.0, 20.0 ],
					"presentation" : 1,
					"presentation_rect" : [ 4.333338002363803, 4.333350658416748, 104.333323995272281, 20.0 ],
					"text" : "Osc"
				}

			}
, 			{
				"box" : 				{
					"id" : "obj-99",
					"maxclass" : "comment",
					"numinlets" : 1,
					"numoutlets" : 0,
					"patching_rect" : [ 563.500014007091522, 990.0, 150.0, 20.0 ],
					"presentation" : 1,
					"presentation_rect" : [ 4.33333800236386, 73.333350658416748, 104.0, 20.0 ],
					"text" : "Tune"
				}

			}
, 			{
				"box" : 				{
					"id" : "obj-96",
					"maxclass" : "newobj",
					"numinlets" : 0,
					"numoutlets" : 1,
					"outlettype" : [ "" ],
					"patching_rect" : [ 1841.0, 867.0, 71.0, 22.0 ],
					"text" : "r #0-sendall"
				}

			}
, 			{
				"box" : 				{
					"id" : "obj-95",
					"maxclass" : "newobj",
					"numinlets" : 0,
					"numoutlets" : 1,
					"outlettype" : [ "" ],
					"patching_rect" : [ 677.000014007091522, 1022.999997496604919, 71.0, 22.0 ],
					"text" : "r #0-sendall"
				}

			}
, 			{
				"box" : 				{
					"id" : "obj-94",
					"maxclass" : "newobj",
					"numinlets" : 0,
					"numoutlets" : 1,
					"outlettype" : [ "" ],
					"patching_rect" : [ 1203.0, 424.999997496604919, 71.0, 22.0 ],
					"text" : "r #0-sendall"
				}

			}
, 			{
				"box" : 				{
					"id" : "obj-93",
					"maxclass" : "newobj",
					"numinlets" : 0,
					"numoutlets" : 1,
					"outlettype" : [ "" ],
					"patching_rect" : [ 1044.0, 364.5, 71.0, 22.0 ],
					"text" : "r #0-sendall"
				}

			}
, 			{
				"box" : 				{
					"id" : "obj-92",
					"maxclass" : "newobj",
					"numinlets" : 0,
					"numoutlets" : 1,
					"outlettype" : [ "" ],
					"patching_rect" : [ 1277.0, 1197.0, 71.0, 22.0 ],
					"text" : "r #0-sendall"
				}

			}
, 			{
				"box" : 				{
					"id" : "obj-91",
					"maxclass" : "newobj",
					"numinlets" : 0,
					"numoutlets" : 1,
					"outlettype" : [ "" ],
					"patching_rect" : [ 1032.799999999999955, 1222.0, 71.0, 22.0 ],
					"text" : "r #0-sendall"
				}

			}
, 			{
				"box" : 				{
					"id" : "obj-90",
					"maxclass" : "newobj",
					"numinlets" : 0,
					"numoutlets" : 1,
					"outlettype" : [ "" ],
					"patching_rect" : [ 1006.799999999999955, 1015.0, 71.0, 22.0 ],
					"text" : "r #0-sendall"
				}

			}
, 			{
				"box" : 				{
					"id" : "obj-89",
					"maxclass" : "newobj",
					"numinlets" : 0,
					"numoutlets" : 1,
					"outlettype" : [ "" ],
					"patching_rect" : [ 343.300000000000011, 378.666659832000732, 71.0, 22.0 ],
					"text" : "r #0-sendall"
				}

			}
, 			{
				"box" : 				{
					"id" : "obj-88",
					"maxclass" : "message",
					"numinlets" : 2,
					"numoutlets" : 1,
					"outlettype" : [ "" ],
					"patching_rect" : [ 152.494435106383435, 61.0, 71.0, 22.0 ],
					"text" : "outputvalue"
				}

			}
, 			{
				"box" : 				{
					"id" : "obj-86",
					"maxclass" : "newobj",
					"numinlets" : 1,
					"numoutlets" : 0,
					"patching_rect" : [ 152.494435106383435, 97.0, 73.0, 22.0 ],
					"text" : "s #0-sendall"
				}

			}
, 			{
				"box" : 				{
					"id" : "obj-85",
					"maxclass" : "newobj",
					"numinlets" : 1,
					"numoutlets" : 6,
					"outlettype" : [ "signal", "bang", "int", "float", "", "list" ],
					"patching_rect" : [ 113.194435106383423, 25.0, 215.5, 22.0 ],
					"text" : "typeroute~"
				}

			}
, 			{
				"box" : 				{
					"comment" : "",
					"id" : "obj-82",
					"index" : 0,
					"maxclass" : "inlet",
					"numinlets" : 0,
					"numoutlets" : 1,
					"outlettype" : [ "" ],
					"patching_rect" : [ 113.194435106383423, -18.0, 30.0, 30.0 ]
				}

			}
, 			{
				"box" : 				{
					"id" : "obj-81",
					"maxclass" : "live.comment",
					"numinlets" : 1,
					"numoutlets" : 0,
					"patching_rect" : [ 1854.0, 941.0, 107.111101773050109, 18.0 ],
					"presentation" : 1,
					"presentation_rect" : [ 381.333343426386591, 48.833350658416748, 38.0, 18.0 ],
					"text" : "Depth",
					"textjustification" : 0
				}

			}
, 			{
				"box" : 				{
					"id" : "obj-75",
					"maxclass" : "newobj",
					"numinlets" : 1,
					"numoutlets" : 1,
					"outlettype" : [ "" ],
					"patching_rect" : [ 1943.0, 1005.000002503395081, 93.0, 22.0 ],
					"text" : "prepend lfo-freq"
				}

			}
, 			{
				"box" : 				{
					"id" : "obj-76",
					"maxclass" : "live.comment",
					"numinlets" : 1,
					"numoutlets" : 0,
					"patching_rect" : [ 2004.0, 972.0, 107.111101773050109, 18.0 ],
					"presentation" : 1,
					"presentation_rect" : [ 381.333343426386591, 36.833350658416748, 38.0, 18.0 ],
					"text" : "Freq",
					"textjustification" : 0
				}

			}
, 			{
				"box" : 				{
					"appearance" : 2,
					"id" : "obj-77",
					"maxclass" : "live.numbox",
					"numinlets" : 1,
					"numoutlets" : 2,
					"outlettype" : [ "", "float" ],
					"parameter_enable" : 1,
					"patching_rect" : [ 1943.0, 975.0, 44.0, 15.0 ],
					"presentation" : 1,
					"presentation_rect" : [ 315.833343426386591, 36.833350658416748, 67.0, 15.0 ],
					"saved_attribute_attributes" : 					{
						"valueof" : 						{
							"parameter_exponent" : 4.0,
							"parameter_initial" : [ 0.0 ],
							"parameter_initial_enable" : 1,
							"parameter_linknames" : 1,
							"parameter_longname" : "LFO-Freq",
							"parameter_mmax" : 20.0,
							"parameter_shortname" : "LFO Freq.",
							"parameter_type" : 0,
							"parameter_unitstyle" : 1
						}

					}
,
					"varname" : "LFO-Freq"
				}

			}
, 			{
				"box" : 				{
					"id" : "obj-78",
					"maxclass" : "live.comment",
					"numinlets" : 1,
					"numoutlets" : 0,
					"patching_rect" : [ 1771.0, 914.0, 107.111101773050109, 18.0 ],
					"presentation" : 1,
					"presentation_rect" : [ 381.333343426386591, 24.833350658416748, 38.0, 18.0 ],
					"text" : "Osc",
					"textjustification" : 0
				}

			}
, 			{
				"box" : 				{
					"appearance" : 2,
					"id" : "obj-79",
					"maxclass" : "live.numbox",
					"numinlets" : 1,
					"numoutlets" : 2,
					"outlettype" : [ "", "float" ],
					"parameter_enable" : 1,
					"patching_rect" : [ 1805.0, 944.0, 44.0, 15.0 ],
					"presentation" : 1,
					"presentation_rect" : [ 315.833343426386591, 48.833350658416748, 67.0, 15.0 ],
					"saved_attribute_attributes" : 					{
						"valueof" : 						{
							"parameter_initial" : [ 0.0 ],
							"parameter_initial_enable" : 1,
							"parameter_linknames" : 1,
							"parameter_longname" : "LFO-Depth",
							"parameter_mmax" : 1.0,
							"parameter_shortname" : "LFO Depth",
							"parameter_type" : 0,
							"parameter_unitstyle" : 1
						}

					}
,
					"varname" : "LFO-Depth"
				}

			}
, 			{
				"box" : 				{
					"id" : "obj-80",
					"maxclass" : "newobj",
					"numinlets" : 1,
					"numoutlets" : 1,
					"outlettype" : [ "" ],
					"patching_rect" : [ 1805.0, 971.000002503395081, 103.0, 22.0 ],
					"text" : "prepend lfo-depth"
				}

			}
, 			{
				"box" : 				{
					"id" : "obj-71",
					"maxclass" : "newobj",
					"numinlets" : 1,
					"numoutlets" : 1,
					"outlettype" : [ "" ],
					"patching_rect" : [ 1662.0, 880.0, 125.0, 22.0 ],
					"text" : "loadmess outputvalue"
				}

			}
, 			{
				"box" : 				{
					"id" : "obj-72",
					"maxclass" : "newobj",
					"numinlets" : 1,
					"numoutlets" : 0,
					"patching_rect" : [ 1662.0, 1046.0, 52.0, 22.0 ],
					"text" : "s #0-out"
				}

			}
, 			{
				"box" : 				{
					"id" : "obj-73",
					"maxclass" : "newobj",
					"numinlets" : 1,
					"numoutlets" : 1,
					"outlettype" : [ "" ],
					"patching_rect" : [ 1662.0, 952.0, 101.0, 22.0 ],
					"text" : "prepend lfo-wave"
				}

			}
, 			{
				"box" : 				{
					"id" : "obj-74",
					"maxclass" : "live.menu",
					"numinlets" : 1,
					"numoutlets" : 3,
					"outlettype" : [ "", "", "float" ],
					"parameter_enable" : 1,
					"patching_rect" : [ 1662.0, 914.0, 100.0, 15.0 ],
					"presentation" : 1,
					"presentation_rect" : [ 315.833343426386591, 24.833350658416748, 67.0, 15.0 ],
					"saved_attribute_attributes" : 					{
						"valueof" : 						{
							"parameter_enum" : [ "sine", "triangle", "saw", "pulse" ],
							"parameter_longname" : "live.menu[1]",
							"parameter_mmax" : 3,
							"parameter_shortname" : "live.menu",
							"parameter_type" : 2
						}

					}
,
					"varname" : "live.menu[1]"
				}

			}
, 			{
				"box" : 				{
					"id" : "obj-44",
					"maxclass" : "newobj",
					"numinlets" : 1,
					"numoutlets" : 1,
					"outlettype" : [ "" ],
					"patching_rect" : [ 1258.0, 555.000002503395081, 79.0, 22.0 ],
					"text" : "prepend gain"
				}

			}
, 			{
				"box" : 				{
					"id" : "obj-67",
					"maxclass" : "live.comment",
					"numinlets" : 1,
					"numoutlets" : 0,
					"patching_rect" : [ 1301.0, 501.0, 107.111101773050109, 18.0 ],
					"presentation" : 1,
					"presentation_rect" : [ 387.833348850409266, 116.000012993812561, 29.0, 18.0 ],
					"text" : "Gain",
					"textjustification" : 0
				}

			}
, 			{
				"box" : 				{
					"appearance" : 2,
					"fontsize" : 11.0,
					"id" : "obj-68",
					"maxclass" : "live.numbox",
					"numinlets" : 1,
					"numoutlets" : 2,
					"outlettype" : [ "", "float" ],
					"parameter_enable" : 1,
					"patching_rect" : [ 1240.0, 504.0, 50.0, 17.0 ],
					"presentation" : 1,
					"presentation_rect" : [ 315.833343426386591, 114.333350658416748, 72.5, 17.0 ],
					"saved_attribute_attributes" : 					{
						"valueof" : 						{
							"parameter_initial" : [ 0.0 ],
							"parameter_initial_enable" : 1,
							"parameter_linknames" : 1,
							"parameter_longname" : "Gain",
							"parameter_mmax" : 1.0,
							"parameter_shortname" : "Gain",
							"parameter_type" : 0,
							"parameter_unitstyle" : 1
						}

					}
,
					"varname" : "Gain"
				}

			}
, 			{
				"box" : 				{
					"id" : "obj-66",
					"maxclass" : "live.comment",
					"numinlets" : 1,
					"numoutlets" : 0,
					"patching_rect" : [ 1264.0, 460.0, 107.111101773050109, 18.0 ],
					"presentation" : 1,
					"presentation_rect" : [ 387.833348850409266, 95.333350658416748, 29.0, 18.0 ],
					"text" : "FM",
					"textjustification" : 0
				}

			}
, 			{
				"box" : 				{
					"appearance" : 2,
					"fontsize" : 11.0,
					"id" : "obj-65",
					"maxclass" : "live.numbox",
					"numinlets" : 1,
					"numoutlets" : 2,
					"outlettype" : [ "", "float" ],
					"parameter_enable" : 1,
					"patching_rect" : [ 1203.0, 463.0, 50.0, 17.0 ],
					"presentation" : 1,
					"presentation_rect" : [ 315.833343426386591, 95.333350658416748, 72.5, 17.0 ],
					"saved_attribute_attributes" : 					{
						"valueof" : 						{
							"parameter_initial" : [ 0.0 ],
							"parameter_initial_enable" : 1,
							"parameter_linknames" : 1,
							"parameter_longname" : "FM",
							"parameter_mmax" : 1.0,
							"parameter_shortname" : "FM",
							"parameter_type" : 0,
							"parameter_unitstyle" : 1
						}

					}
,
					"varname" : "FM"
				}

			}
, 			{
				"box" : 				{
					"id" : "obj-47",
					"maxclass" : "newobj",
					"numinlets" : 1,
					"numoutlets" : 0,
					"patching_rect" : [ 1044.0, 481.0, 52.0, 22.0 ],
					"text" : "s #0-out"
				}

			}
, 			{
				"box" : 				{
					"id" : "obj-46",
					"maxclass" : "newobj",
					"numinlets" : 1,
					"numoutlets" : 1,
					"outlettype" : [ "" ],
					"patching_rect" : [ 1044.0, 440.0, 79.0, 22.0 ],
					"text" : "prepend tofm"
				}

			}
, 			{
				"box" : 				{
					"automation" : "\"To Out\"",
					"automationon" : "\"To FM\"",
					"id" : "obj-32",
					"maxclass" : "live.text",
					"numinlets" : 1,
					"numoutlets" : 2,
					"outlettype" : [ "", "" ],
					"parameter_enable" : 1,
					"patching_rect" : [ 1044.0, 400.0, 44.0, 15.0 ],
					"presentation" : 1,
					"presentation_rect" : [ 362.833348850409266, 75.833350658416748, 54.0, 15.0 ],
					"saved_attribute_attributes" : 					{
						"valueof" : 						{
							"parameter_enum" : [ "\"To Out\"", "\"To FM\"" ],
							"parameter_initial" : [ 0.0 ],
							"parameter_initial_enable" : 1,
							"parameter_linknames" : 1,
							"parameter_longname" : "to-fm",
							"parameter_mmax" : 1,
							"parameter_shortname" : "Routing",
							"parameter_type" : 2
						}

					}
,
					"text" : "To Out",
					"texton" : "To FM ->",
					"varname" : "to-fm"
				}

			}
, 			{
				"box" : 				{
					"id" : "obj-63",
					"maxclass" : "newobj",
					"numinlets" : 1,
					"numoutlets" : 0,
					"patching_rect" : [ 1072.944449113475002, 1338.000002503395081, 52.0, 22.0 ],
					"text" : "s #0-out"
				}

			}
, 			{
				"box" : 				{
					"id" : "obj-64",
					"maxclass" : "newobj",
					"numinlets" : 1,
					"numoutlets" : 1,
					"outlettype" : [ "" ],
					"patching_rect" : [ 1072.944449113475002, 1307.000002503395081, 85.0, 22.0 ],
					"text" : "prepend noise"
				}

			}
, 			{
				"box" : 				{
					"id" : "obj-62",
					"maxclass" : "live.comment",
					"numinlets" : 1,
					"numoutlets" : 0,
					"patching_rect" : [ 1072.944449113475002, 1260.000002503395081, 107.111101773050109, 18.0 ],
					"presentation" : 1,
					"presentation_rect" : [ 65.666661997636027, 47.833350658416748, 43.0, 18.0 ],
					"text" : "Noise",
					"textjustification" : 0
				}

			}
, 			{
				"box" : 				{
					"appearance" : 2,
					"id" : "obj-61",
					"maxclass" : "live.numbox",
					"numinlets" : 1,
					"numoutlets" : 2,
					"outlettype" : [ "", "float" ],
					"parameter_enable" : 1,
					"patching_rect" : [ 1072.944449113475002, 1282.000002503395081, 44.0, 15.0 ],
					"presentation" : 1,
					"presentation_rect" : [ 8.333338002363803, 48.833350658416748, 59.0, 15.0 ],
					"saved_attribute_attributes" : 					{
						"valueof" : 						{
							"parameter_initial" : [ 0.0 ],
							"parameter_initial_enable" : 1,
							"parameter_linknames" : 1,
							"parameter_longname" : "noise",
							"parameter_mmax" : 1.0,
							"parameter_shortname" : "Noise",
							"parameter_type" : 0,
							"parameter_unitstyle" : 1
						}

					}
,
					"varname" : "noise"
				}

			}
, 			{
				"box" : 				{
					"id" : "obj-60",
					"maxclass" : "newobj",
					"numinlets" : 1,
					"numoutlets" : 0,
					"patching_rect" : [ 1185.0, 587.000002503395081, 52.0, 22.0 ],
					"text" : "s #0-out"
				}

			}
, 			{
				"box" : 				{
					"id" : "obj-59",
					"maxclass" : "newobj",
					"numinlets" : 1,
					"numoutlets" : 1,
					"outlettype" : [ "" ],
					"patching_rect" : [ 1185.0, 555.000002503395081, 69.0, 22.0 ],
					"text" : "prepend fm"
				}

			}
, 			{
				"box" : 				{
					"id" : "obj-58",
					"maxclass" : "live.comment",
					"numinlets" : 1,
					"numoutlets" : 0,
					"patching_rect" : [ 1251.5, 1232.000002503395081, 107.111101773050109, 18.0 ],
					"presentation" : 1,
					"presentation_rect" : [ 65.666661997636027, 35.833350658416748, 43.0, 18.0 ],
					"text" : "P-width",
					"textjustification" : 0
				}

			}
, 			{
				"box" : 				{
					"appearance" : 3,
					"id" : "obj-57",
					"maxclass" : "live.numbox",
					"numinlets" : 1,
					"numoutlets" : 2,
					"outlettype" : [ "", "float" ],
					"parameter_enable" : 1,
					"patching_rect" : [ 629.000014007091522, 1090.0, 44.0, 15.0 ],
					"presentation" : 1,
					"presentation_rect" : [ 8.33333800236386, 114.333350658416748, 59.0, 15.0 ],
					"saved_attribute_attributes" : 					{
						"valueof" : 						{
							"parameter_initial" : [ 0.0 ],
							"parameter_initial_enable" : 1,
							"parameter_linknames" : 1,
							"parameter_longname" : "detune",
							"parameter_mmax" : 100.0,
							"parameter_mmin" : -100.0,
							"parameter_shortname" : "Detune",
							"parameter_type" : 0,
							"parameter_unitstyle" : 1
						}

					}
,
					"varname" : "detune"
				}

			}
, 			{
				"box" : 				{
					"id" : "obj-56",
					"maxclass" : "live.comment",
					"numinlets" : 1,
					"numoutlets" : 0,
					"patching_rect" : [ 633.000014007091522, 1070.000002503395081, 107.111101773050109, 18.0 ],
					"presentation" : 1,
					"presentation_rect" : [ 65.666661997636027, 114.333350658416748, 42.666676004727719, 18.0 ],
					"text" : "Detune",
					"textjustification" : 0
				}

			}
, 			{
				"box" : 				{
					"appearance" : 2,
					"id" : "obj-54",
					"maxclass" : "live.numbox",
					"numinlets" : 1,
					"numoutlets" : 2,
					"outlettype" : [ "", "float" ],
					"parameter_enable" : 1,
					"patching_rect" : [ 1199.5, 1232.000002503395081, 44.0, 15.0 ],
					"presentation" : 1,
					"presentation_rect" : [ 8.333338002363803, 36.833350658416748, 59.0, 15.0 ],
					"saved_attribute_attributes" : 					{
						"valueof" : 						{
							"parameter_initial" : [ 0.0 ],
							"parameter_initial_enable" : 1,
							"parameter_linknames" : 1,
							"parameter_longname" : "pulsewidth",
							"parameter_mmax" : 1.0,
							"parameter_shortname" : "Pulse Width",
							"parameter_type" : 0,
							"parameter_unitstyle" : 1
						}

					}
,
					"varname" : "pulsewidth"
				}

			}
, 			{
				"box" : 				{
					"id" : "obj-53",
					"maxclass" : "newobj",
					"numinlets" : 1,
					"numoutlets" : 1,
					"outlettype" : [ "" ],
					"patching_rect" : [ 620.500014007091522, 1204.0, 93.0, 22.0 ],
					"text" : "prepend detune"
				}

			}
, 			{
				"box" : 				{
					"id" : "obj-51",
					"maxclass" : "newobj",
					"numinlets" : 1,
					"numoutlets" : 0,
					"patching_rect" : [ 726.000014007091522, 1246.000002503395081, 52.0, 22.0 ],
					"text" : "s #0-out"
				}

			}
, 			{
				"box" : 				{
					"id" : "obj-50",
					"maxclass" : "newobj",
					"numinlets" : 1,
					"numoutlets" : 1,
					"outlettype" : [ "" ],
					"patching_rect" : [ 776.000014007091522, 1204.0, 91.0, 22.0 ],
					"text" : "prepend divisor"
				}

			}
, 			{
				"box" : 				{
					"id" : "obj-49",
					"maxclass" : "newobj",
					"numinlets" : 1,
					"numoutlets" : 1,
					"outlettype" : [ "" ],
					"patching_rect" : [ 726.000014007091522, 1173.0, 101.0, 22.0 ],
					"text" : "prepend dividend"
				}

			}
, 			{
				"box" : 				{
					"id" : "obj-48",
					"maxclass" : "live.comment",
					"numinlets" : 1,
					"numoutlets" : 0,
					"patching_rect" : [ 717.888912234041413, 1093.999997496604919, 107.111101773050109, 18.0 ],
					"presentation" : 1,
					"presentation_rect" : [ 65.666661997636027, 97.833350658416748, 42.666676004727719, 18.0 ],
					"text" : "Ratio",
					"textjustification" : 0
				}

			}
, 			{
				"box" : 				{
					"id" : "obj-45",
					"maxclass" : "comment",
					"numinlets" : 1,
					"numoutlets" : 0,
					"patching_rect" : [ 722.000014007091522, 1115.0, 150.0, 20.0 ],
					"presentation" : 1,
					"presentation_rect" : [ 32.33333800236386, 95.333350658416748, 18.0, 20.0 ],
					"text" : "/"
				}

			}
, 			{
				"box" : 				{
					"id" : "obj-43",
					"maxclass" : "live.numbox",
					"numinlets" : 1,
					"numoutlets" : 2,
					"outlettype" : [ "", "float" ],
					"parameter_enable" : 1,
					"patching_rect" : [ 781.000014007091522, 1137.0, 44.0, 15.0 ],
					"presentation" : 1,
					"presentation_rect" : [ 41.33333800236386, 97.833350658416748, 27.0, 15.0 ],
					"saved_attribute_attributes" : 					{
						"valueof" : 						{
							"parameter_initial" : [ 1 ],
							"parameter_initial_enable" : 1,
							"parameter_linknames" : 1,
							"parameter_longname" : "divisor",
							"parameter_mmax" : 999.0,
							"parameter_mmin" : -999.0,
							"parameter_shortname" : "divisor",
							"parameter_type" : 0,
							"parameter_unitstyle" : 0
						}

					}
,
					"textjustification" : 0,
					"varname" : "divisor"
				}

			}
, 			{
				"box" : 				{
					"id" : "obj-41",
					"maxclass" : "live.numbox",
					"numinlets" : 1,
					"numoutlets" : 2,
					"outlettype" : [ "", "float" ],
					"parameter_enable" : 1,
					"patching_rect" : [ 726.000014007091522, 1137.0, 44.0, 15.0 ],
					"presentation" : 1,
					"presentation_rect" : [ 8.33333800236386, 97.833350658416748, 27.0, 15.0 ],
					"saved_attribute_attributes" : 					{
						"valueof" : 						{
							"parameter_initial" : [ 1 ],
							"parameter_initial_enable" : 1,
							"parameter_linknames" : 1,
							"parameter_longname" : "dividend",
							"parameter_mmax" : 999.0,
							"parameter_mmin" : -999.0,
							"parameter_shortname" : "dividend",
							"parameter_type" : 0,
							"parameter_unitstyle" : 0
						}

					}
,
					"textjustification" : 0,
					"varname" : "dividend"
				}

			}
, 			{
				"box" : 				{
					"id" : "obj-42",
					"maxclass" : "message",
					"numinlets" : 2,
					"numoutlets" : 1,
					"outlettype" : [ "" ],
					"patching_rect" : [ 1199.5, 1197.0, 71.0, 22.0 ],
					"text" : "outputvalue"
				}

			}
, 			{
				"box" : 				{
					"id" : "obj-40",
					"maxclass" : "newobj",
					"numinlets" : 1,
					"numoutlets" : 2,
					"outlettype" : [ "int", "int" ],
					"patching_rect" : [ 1199.5, 1098.999997496604919, 29.5, 22.0 ],
					"text" : "t i i"
				}

			}
, 			{
				"box" : 				{
					"id" : "obj-39",
					"maxclass" : "newobj",
					"numinlets" : 2,
					"numoutlets" : 2,
					"outlettype" : [ "bang", "" ],
					"patching_rect" : [ 1199.5, 1150.0, 34.0, 22.0 ],
					"text" : "sel 1"
				}

			}
, 			{
				"box" : 				{
					"id" : "obj-35",
					"maxclass" : "newobj",
					"numinlets" : 1,
					"numoutlets" : 0,
					"patching_rect" : [ 1199.5, 1298.000002503395081, 52.0, 22.0 ],
					"text" : "s #0-out"
				}

			}
, 			{
				"box" : 				{
					"id" : "obj-33",
					"maxclass" : "newobj",
					"numinlets" : 1,
					"numoutlets" : 1,
					"outlettype" : [ "" ],
					"patching_rect" : [ 1199.5, 1260.000002503395081, 113.0, 22.0 ],
					"text" : "prepend pulsewidth"
				}

			}
, 			{
				"box" : 				{
					"id" : "obj-37",
					"maxclass" : "newobj",
					"numinlets" : 1,
					"numoutlets" : 1,
					"outlettype" : [ "" ],
					"patching_rect" : [ 1082.5, 1015.0, 125.0, 22.0 ],
					"text" : "loadmess outputvalue"
				}

			}
, 			{
				"box" : 				{
					"id" : "obj-36",
					"maxclass" : "message",
					"numinlets" : 2,
					"numoutlets" : 1,
					"outlettype" : [ "" ],
					"patching_rect" : [ 1241.5, 1150.0, 57.0, 22.0 ],
					"text" : "active $1"
				}

			}
, 			{
				"box" : 				{
					"id" : "obj-34",
					"maxclass" : "newobj",
					"numinlets" : 2,
					"numoutlets" : 1,
					"outlettype" : [ "int" ],
					"patching_rect" : [ 1199.5, 1057.0, 33.0, 22.0 ],
					"text" : "== 3"
				}

			}
, 			{
				"box" : 				{
					"id" : "obj-31",
					"maxclass" : "live.comment",
					"numinlets" : 1,
					"numoutlets" : 0,
					"patching_rect" : [ 1277.0, 1036.000002503395081, 38.111101773050109, 18.0 ],
					"presentation" : 1,
					"presentation_rect" : [ 65.666661997636027, 24.833350658416748, 43.0, 18.0 ],
					"text" : "Osc.",
					"textjustification" : 0
				}

			}
, 			{
				"box" : 				{
					"id" : "obj-30",
					"maxclass" : "newobj",
					"numinlets" : 1,
					"numoutlets" : 0,
					"patching_rect" : [ 1082.5, 1127.0, 52.0, 22.0 ],
					"text" : "s #0-out"
				}

			}
, 			{
				"box" : 				{
					"id" : "obj-29",
					"maxclass" : "newobj",
					"numinlets" : 1,
					"numoutlets" : 1,
					"outlettype" : [ "" ],
					"patching_rect" : [ 1082.5, 1087.0, 84.0, 22.0 ],
					"text" : "prepend wave"
				}

			}
, 			{
				"box" : 				{
					"id" : "obj-22",
					"maxclass" : "newobj",
					"numinlets" : 0,
					"numoutlets" : 1,
					"outlettype" : [ "" ],
					"patching_rect" : [ 83.666657328605652, 920.0, 50.0, 22.0 ],
					"text" : "r #0-out"
				}

			}
, 			{
				"box" : 				{
					"id" : "obj-3",
					"maxclass" : "newobj",
					"numinlets" : 1,
					"numoutlets" : 0,
					"patching_rect" : [ 168.166657328605652, 758.0, 52.0, 22.0 ],
					"text" : "s #0-out"
				}

			}
, 			{
				"box" : 				{
					"id" : "obj-2",
					"maxclass" : "live.menu",
					"numinlets" : 1,
					"numoutlets" : 3,
					"outlettype" : [ "", "", "float" ],
					"parameter_enable" : 1,
					"patching_rect" : [ 1082.5, 1049.0, 100.0, 15.0 ],
					"presentation" : 1,
					"presentation_rect" : [ 8.333338002363803, 24.833350658416748, 59.0, 15.0 ],
					"saved_attribute_attributes" : 					{
						"valueof" : 						{
							"parameter_enum" : [ "sine", "triangle", "saw", "pulse" ],
							"parameter_longname" : "live.menu",
							"parameter_mmax" : 3,
							"parameter_shortname" : "live.menu",
							"parameter_type" : 2
						}

					}
,
					"varname" : "live.menu"
				}

			}
, 			{
				"box" : 				{
					"comment" : "",
					"id" : "obj-28",
					"index" : 0,
					"maxclass" : "outlet",
					"numinlets" : 1,
					"numoutlets" : 0,
					"patching_rect" : [ 83.444435106383423, 951.0, 30.0, 30.0 ]
				}

			}
, 			{
				"box" : 				{
					"id" : "obj-23",
					"maxclass" : "newobj",
					"numinlets" : 0,
					"numoutlets" : 1,
					"outlettype" : [ "" ],
					"patching_rect" : [ 400.44443510638348, 688.666659832000732, 73.0, 22.0 ],
					"text" : "r #0-release"
				}

			}
, 			{
				"box" : 				{
					"id" : "obj-25",
					"maxclass" : "newobj",
					"numinlets" : 0,
					"numoutlets" : 1,
					"outlettype" : [ "" ],
					"patching_rect" : [ 285.44443510638348, 671.0, 71.0, 22.0 ],
					"text" : "r #0-sustain"
				}

			}
, 			{
				"box" : 				{
					"id" : "obj-26",
					"maxclass" : "newobj",
					"numinlets" : 0,
					"numoutlets" : 1,
					"outlettype" : [ "" ],
					"patching_rect" : [ 188.444435106383423, 671.0, 65.0, 22.0 ],
					"text" : "r #0-decay"
				}

			}
, 			{
				"box" : 				{
					"id" : "obj-27",
					"maxclass" : "newobj",
					"numinlets" : 0,
					"numoutlets" : 1,
					"outlettype" : [ "" ],
					"patching_rect" : [ 83.444435106383423, 671.0, 65.0, 22.0 ],
					"text" : "r #0-attack"
				}

			}
, 			{
				"box" : 				{
					"id" : "obj-15",
					"maxclass" : "newobj",
					"numinlets" : 0,
					"numoutlets" : 1,
					"outlettype" : [ "" ],
					"patching_rect" : [ 318.444435106383423, 203.0, 73.0, 22.0 ],
					"text" : "r #0-release"
				}

			}
, 			{
				"box" : 				{
					"id" : "obj-16",
					"maxclass" : "newobj",
					"numinlets" : 0,
					"numoutlets" : 1,
					"outlettype" : [ "" ],
					"patching_rect" : [ 234.444435106383423, 203.0, 71.0, 22.0 ],
					"text" : "r #0-sustain"
				}

			}
, 			{
				"box" : 				{
					"id" : "obj-17",
					"maxclass" : "newobj",
					"numinlets" : 0,
					"numoutlets" : 1,
					"outlettype" : [ "" ],
					"patching_rect" : [ 154.444435106383423, 203.0, 65.0, 22.0 ],
					"text" : "r #0-decay"
				}

			}
, 			{
				"box" : 				{
					"id" : "obj-14",
					"maxclass" : "newobj",
					"numinlets" : 1,
					"numoutlets" : 0,
					"patching_rect" : [ 327.666657328605652, 510.0, 75.0, 22.0 ],
					"text" : "s #0-release"
				}

			}
, 			{
				"box" : 				{
					"id" : "obj-13",
					"maxclass" : "newobj",
					"numinlets" : 1,
					"numoutlets" : 0,
					"patching_rect" : [ 243.666657328605652, 510.0, 73.0, 22.0 ],
					"text" : "s #0-sustain"
				}

			}
, 			{
				"box" : 				{
					"id" : "obj-11",
					"maxclass" : "newobj",
					"numinlets" : 1,
					"numoutlets" : 0,
					"patching_rect" : [ 160.666657328605652, 510.0, 67.0, 22.0 ],
					"text" : "s #0-decay"
				}

			}
, 			{
				"box" : 				{
					"id" : "obj-9",
					"maxclass" : "newobj",
					"numinlets" : 0,
					"numoutlets" : 1,
					"outlettype" : [ "" ],
					"patching_rect" : [ 87.444435106383423, 203.0, 65.0, 22.0 ],
					"text" : "r #0-attack"
				}

			}
, 			{
				"box" : 				{
					"id" : "obj-8",
					"maxclass" : "newobj",
					"numinlets" : 1,
					"numoutlets" : 0,
					"patching_rect" : [ 83.666657328605652, 506.0, 67.0, 22.0 ],
					"text" : "s #0-attack"
				}

			}
, 			{
				"box" : 				{
					"id" : "obj-7",
					"maxclass" : "newobj",
					"numinlets" : 1,
					"numoutlets" : 1,
					"outlettype" : [ "" ],
					"patching_rect" : [ 390.44443510638348, 714.0, 95.0, 22.0 ],
					"text" : "prepend release"
				}

			}
, 			{
				"box" : 				{
					"id" : "obj-6",
					"maxclass" : "newobj",
					"numinlets" : 1,
					"numoutlets" : 1,
					"outlettype" : [ "" ],
					"patching_rect" : [ 285.44443510638348, 714.0, 94.0, 22.0 ],
					"text" : "prepend sustain"
				}

			}
, 			{
				"box" : 				{
					"id" : "obj-5",
					"maxclass" : "newobj",
					"numinlets" : 1,
					"numoutlets" : 1,
					"outlettype" : [ "" ],
					"patching_rect" : [ 188.444435106383423, 714.0, 88.0, 22.0 ],
					"text" : "prepend decay"
				}

			}
, 			{
				"box" : 				{
					"id" : "obj-4",
					"maxclass" : "newobj",
					"numinlets" : 1,
					"numoutlets" : 1,
					"outlettype" : [ "" ],
					"patching_rect" : [ 83.444435106383423, 714.0, 88.0, 22.0 ],
					"text" : "prepend attack"
				}

			}
, 			{
				"box" : 				{
					"id" : "obj-21",
					"maxclass" : "live.comment",
					"numinlets" : 1,
					"numoutlets" : 0,
					"patching_rect" : [ 327.83332790931064, 450.999997496604919, 44.0, 18.0 ],
					"presentation" : 1,
					"presentation_rect" : [ 259.33333800236386, 97.833350658416748, 44.0, 18.0 ],
					"text" : "Release",
					"textjustification" : 0
				}

			}
, 			{
				"box" : 				{
					"id" : "obj-20",
					"maxclass" : "live.comment",
					"numinlets" : 1,
					"numoutlets" : 0,
					"patching_rect" : [ 243.666657328605652, 450.999997496604919, 44.0, 18.0 ],
					"presentation" : 1,
					"presentation_rect" : [ 213.33333800236386, 97.833350658416748, 44.0, 18.0 ],
					"text" : "Sustain",
					"textjustification" : 0
				}

			}
, 			{
				"box" : 				{
					"id" : "obj-18",
					"maxclass" : "live.comment",
					"numinlets" : 1,
					"numoutlets" : 0,
					"patching_rect" : [ 165.111106442080597, 450.999997496604919, 35.111101773050109, 18.0 ],
					"presentation" : 1,
					"presentation_rect" : [ 167.33333800236386, 97.833350658416748, 35.111101773050109, 18.0 ],
					"text" : "Decay",
					"textjustification" : 0
				}

			}
, 			{
				"box" : 				{
					"id" : "obj-1",
					"maxclass" : "live.comment",
					"numinlets" : 1,
					"numoutlets" : 0,
					"patching_rect" : [ 83.666657328605652, 454.999997496604919, 38.111101773050109, 18.0 ],
					"presentation" : 1,
					"presentation_rect" : [ 121.33333800236386, 97.833350658416748, 38.111101773050109, 18.0 ],
					"text" : "Attack",
					"textjustification" : 0
				}

			}
, 			{
				"box" : 				{
					"hidden" : 1,
					"id" : "obj-97",
					"maxclass" : "newobj",
					"numinlets" : 2,
					"numoutlets" : 1,
					"outlettype" : [ "float" ],
					"patching_rect" : [ 212.666657328605652, 357.666659832000732, 40.0, 22.0 ],
					"text" : "* 100."
				}

			}
, 			{
				"box" : 				{
					"hidden" : 1,
					"id" : "obj-154",
					"maxclass" : "newobj",
					"numinlets" : 2,
					"numoutlets" : 1,
					"outlettype" : [ "float" ],
					"patching_rect" : [ 234.444435106383423, 238.666659832000732, 39.0, 22.0 ],
					"text" : "/ 100."
				}

			}
, 			{
				"box" : 				{
					"id" : "obj-19",
					"maxclass" : "live.adsrui",
					"numinlets" : 10,
					"numoutlets" : 10,
					"outlettype" : [ "", "", "", "", "", "", "", "", "", "" ],
					"patching_rect" : [ 83.666657328605652, 288.666659832000732, 307.777777777777771, 50.0 ],
					"peak" : 0.765700483091787,
					"presentation" : 1,
					"presentation_rect" : [ 121.33333800236386, 24.833350658416748, 182.0, 68.5 ],
					"sustain" : 0.0,
					"sustain_exponent" : 2.0
				}

			}
, 			{
				"box" : 				{
					"appearance" : 2,
					"id" : "obj-24",
					"maxclass" : "live.numbox",
					"numinlets" : 1,
					"numoutlets" : 2,
					"outlettype" : [ "", "float" ],
					"parameter_enable" : 1,
					"patching_rect" : [ 327.666657328605652, 468.999997496604919, 44.0, 15.0 ],
					"presentation" : 1,
					"presentation_rect" : [ 259.33333800236386, 111.833350658416748, 44.0, 15.0 ],
					"saved_attribute_attributes" : 					{
						"valueof" : 						{
							"parameter_exponent" : 8.0,
							"parameter_initial" : [ 50 ],
							"parameter_initial_enable" : 1,
							"parameter_longname" : "Release",
							"parameter_mmax" : 60000.0,
							"parameter_mmin" : 1.0,
							"parameter_shortname" : "Release",
							"parameter_type" : 0,
							"parameter_unitstyle" : 2
						}

					}
,
					"varname" : "live.numbox[7]"
				}

			}
, 			{
				"box" : 				{
					"appearance" : 2,
					"id" : "obj-10",
					"maxclass" : "live.numbox",
					"numinlets" : 1,
					"numoutlets" : 2,
					"outlettype" : [ "", "float" ],
					"parameter_enable" : 1,
					"patching_rect" : [ 160.666657328605652, 468.999997496604919, 44.0, 15.0 ],
					"presentation" : 1,
					"presentation_rect" : [ 167.33333800236386, 111.833350658416748, 44.0, 15.0 ],
					"saved_attribute_attributes" : 					{
						"valueof" : 						{
							"parameter_exponent" : 8.0,
							"parameter_initial" : [ 600 ],
							"parameter_initial_enable" : 1,
							"parameter_longname" : "Decay",
							"parameter_mmax" : 60000.0,
							"parameter_mmin" : 1.0,
							"parameter_shortname" : "Decay",
							"parameter_type" : 0,
							"parameter_unitstyle" : 2
						}

					}
,
					"varname" : "live.numbox[6]"
				}

			}
, 			{
				"box" : 				{
					"appearance" : 2,
					"id" : "obj-12",
					"maxclass" : "live.numbox",
					"numinlets" : 1,
					"numoutlets" : 2,
					"outlettype" : [ "", "float" ],
					"parameter_enable" : 1,
					"patching_rect" : [ 83.666657328605652, 472.999997496604919, 44.0, 15.0 ],
					"presentation" : 1,
					"presentation_rect" : [ 121.33333800236386, 111.833350658416748, 44.0, 15.0 ],
					"saved_attribute_attributes" : 					{
						"valueof" : 						{
							"parameter_exponent" : 8.0,
							"parameter_initial" : [ 0 ],
							"parameter_initial_enable" : 1,
							"parameter_longname" : "Attack",
							"parameter_mmax" : 20000.0,
							"parameter_shortname" : "Attack",
							"parameter_type" : 0,
							"parameter_unitstyle" : 2
						}

					}
,
					"varname" : "live.numbox[5]"
				}

			}
, 			{
				"box" : 				{
					"appearance" : 2,
					"id" : "obj-38",
					"maxclass" : "live.numbox",
					"numinlets" : 1,
					"numoutlets" : 2,
					"outlettype" : [ "", "float" ],
					"parameter_enable" : 1,
					"patching_rect" : [ 243.666657328605652, 468.999997496604919, 44.0, 15.0 ],
					"presentation" : 1,
					"presentation_rect" : [ 213.33333800236386, 111.833350658416748, 44.0, 15.0 ],
					"saved_attribute_attributes" : 					{
						"valueof" : 						{
							"parameter_initial" : [ 0 ],
							"parameter_initial_enable" : 1,
							"parameter_longname" : "Sustain",
							"parameter_mmax" : 100.0,
							"parameter_shortname" : "Sustain",
							"parameter_type" : 0,
							"parameter_unitstyle" : 5
						}

					}
,
					"varname" : "live.numbox[3]"
				}

			}
, 			{
				"box" : 				{
					"angle" : 270.0,
					"bgcolor" : [ 1.0, 1.0, 1.0, 0.25 ],
					"id" : "obj-55",
					"maxclass" : "panel",
					"mode" : 0,
					"numinlets" : 1,
					"numoutlets" : 0,
					"patching_rect" : [ 1613.0, 679.0, 556.0, 484.0 ],
					"presentation" : 1,
					"presentation_rect" : [ 312.666676004727833, 4.333350658416748, 109.0, 65.0 ],
					"proportion" : 0.5
				}

			}
, 			{
				"box" : 				{
					"angle" : 270.0,
					"bgcolor" : [ 1.0, 1.0, 1.0, 0.25 ],
					"id" : "obj-84",
					"maxclass" : "panel",
					"mode" : 0,
					"numinlets" : 1,
					"numoutlets" : 0,
					"patching_rect" : [ 51.944435106383423, 158.666659832000732, 445.0, 411.0 ],
					"presentation" : 1,
					"presentation_rect" : [ 115.33333800236386, 4.333350658416748, 194.0, 134.0 ],
					"proportion" : 0.5
				}

			}
, 			{
				"box" : 				{
					"angle" : 270.0,
					"bgcolor" : [ 1.0, 1.0, 1.0, 0.25 ],
					"id" : "obj-69",
					"maxclass" : "panel",
					"mode" : 0,
					"numinlets" : 1,
					"numoutlets" : 0,
					"patching_rect" : [ 502.444449113475002, 977.0, 393.0, 328.0 ],
					"presentation" : 1,
					"presentation_rect" : [ 4.33333800236386, 73.333350658416748, 109.0, 65.0 ],
					"proportion" : 0.5
				}

			}
, 			{
				"box" : 				{
					"angle" : 270.0,
					"bgcolor" : [ 1.0, 1.0, 1.0, 0.25 ],
					"id" : "obj-70",
					"maxclass" : "panel",
					"mode" : 0,
					"numinlets" : 1,
					"numoutlets" : 0,
					"patching_rect" : [ 922.0, 962.0, 474.0, 430.0 ],
					"presentation" : 1,
					"presentation_rect" : [ 4.333338002363803, 4.333350658416748, 109.000000000000057, 65.0 ],
					"proportion" : 0.5
				}

			}
, 			{
				"box" : 				{
					"id" : "obj-105",
					"maxclass" : "comment",
					"numinlets" : 1,
					"numoutlets" : 0,
					"patching_rect" : [ 1077.0, 318.666659832000732, 150.0, 20.0 ],
					"presentation" : 1,
					"presentation_rect" : [ 313.333343426386591, 73.333350658416748, 107.0, 20.0 ],
					"text" : "Output",
					"textjustification" : 0
				}

			}
, 			{
				"box" : 				{
					"angle" : 270.0,
					"bgcolor" : [ 1.0, 1.0, 1.0, 0.25 ],
					"id" : "obj-83",
					"maxclass" : "panel",
					"mode" : 0,
					"numinlets" : 1,
					"numoutlets" : 0,
					"patching_rect" : [ 995.0, 280.999997496604919, 449.0, 379.0 ],
					"presentation" : 1,
					"presentation_rect" : [ 313.333343426386591, 73.333350658416748, 108.333332578341242, 65.0 ],
					"proportion" : 0.5
				}

			}
, 			{
				"box" : 				{
					"angle" : 270.0,
					"bgcolor" : [ 0.0, 0.0, 0.0, 0.26 ],
					"id" : "obj-87",
					"maxclass" : "panel",
					"mode" : 0,
					"numinlets" : 1,
					"numoutlets" : 0,
					"patching_rect" : [ 796.0, 4.0, 128.0, 128.0 ],
					"presentation" : 1,
					"presentation_rect" : [ 0.500005424022675, 0.833350658416748, 425.166670699914448, 141.666666746139526 ],
					"proportion" : 0.5
				}

			}
 ],
		"lines" : [ 			{
				"patchline" : 				{
					"destination" : [ "obj-11", 0 ],
					"source" : [ "obj-10", 0 ]
				}

			}
, 			{
				"patchline" : 				{
					"destination" : [ "obj-8", 0 ],
					"source" : [ "obj-12", 0 ]
				}

			}
, 			{
				"patchline" : 				{
					"destination" : [ "obj-19", 3 ],
					"source" : [ "obj-15", 0 ]
				}

			}
, 			{
				"patchline" : 				{
					"destination" : [ "obj-19", 2 ],
					"hidden" : 1,
					"source" : [ "obj-154", 0 ]
				}

			}
, 			{
				"patchline" : 				{
					"destination" : [ "obj-154", 0 ],
					"source" : [ "obj-16", 0 ]
				}

			}
, 			{
				"patchline" : 				{
					"destination" : [ "obj-19", 1 ],
					"source" : [ "obj-17", 0 ]
				}

			}
, 			{
				"patchline" : 				{
					"destination" : [ "obj-10", 0 ],
					"hidden" : 1,
					"source" : [ "obj-19", 1 ]
				}

			}
, 			{
				"patchline" : 				{
					"destination" : [ "obj-12", 0 ],
					"hidden" : 1,
					"source" : [ "obj-19", 0 ]
				}

			}
, 			{
				"patchline" : 				{
					"destination" : [ "obj-24", 0 ],
					"hidden" : 1,
					"source" : [ "obj-19", 3 ]
				}

			}
, 			{
				"patchline" : 				{
					"destination" : [ "obj-97", 0 ],
					"hidden" : 1,
					"source" : [ "obj-19", 2 ]
				}

			}
, 			{
				"patchline" : 				{
					"destination" : [ "obj-29", 0 ],
					"order" : 1,
					"source" : [ "obj-2", 0 ]
				}

			}
, 			{
				"patchline" : 				{
					"destination" : [ "obj-34", 0 ],
					"order" : 0,
					"source" : [ "obj-2", 0 ]
				}

			}
, 			{
				"patchline" : 				{
					"destination" : [ "obj-28", 0 ],
					"source" : [ "obj-22", 0 ]
				}

			}
, 			{
				"patchline" : 				{
					"destination" : [ "obj-7", 0 ],
					"source" : [ "obj-23", 0 ]
				}

			}
, 			{
				"patchline" : 				{
					"destination" : [ "obj-14", 0 ],
					"source" : [ "obj-24", 0 ]
				}

			}
, 			{
				"patchline" : 				{
					"destination" : [ "obj-6", 0 ],
					"source" : [ "obj-25", 0 ]
				}

			}
, 			{
				"patchline" : 				{
					"destination" : [ "obj-5", 0 ],
					"source" : [ "obj-26", 0 ]
				}

			}
, 			{
				"patchline" : 				{
					"destination" : [ "obj-4", 0 ],
					"source" : [ "obj-27", 0 ]
				}

			}
, 			{
				"patchline" : 				{
					"destination" : [ "obj-30", 0 ],
					"source" : [ "obj-29", 0 ]
				}

			}
, 			{
				"patchline" : 				{
					"destination" : [ "obj-46", 0 ],
					"source" : [ "obj-32", 0 ]
				}

			}
, 			{
				"patchline" : 				{
					"destination" : [ "obj-35", 0 ],
					"source" : [ "obj-33", 0 ]
				}

			}
, 			{
				"patchline" : 				{
					"destination" : [ "obj-40", 0 ],
					"source" : [ "obj-34", 0 ]
				}

			}
, 			{
				"patchline" : 				{
					"destination" : [ "obj-54", 0 ],
					"source" : [ "obj-36", 0 ]
				}

			}
, 			{
				"patchline" : 				{
					"destination" : [ "obj-2", 0 ],
					"source" : [ "obj-37", 0 ]
				}

			}
, 			{
				"patchline" : 				{
					"destination" : [ "obj-13", 0 ],
					"source" : [ "obj-38", 0 ]
				}

			}
, 			{
				"patchline" : 				{
					"destination" : [ "obj-42", 0 ],
					"source" : [ "obj-39", 0 ]
				}

			}
, 			{
				"patchline" : 				{
					"destination" : [ "obj-3", 0 ],
					"source" : [ "obj-4", 0 ]
				}

			}
, 			{
				"patchline" : 				{
					"destination" : [ "obj-36", 0 ],
					"source" : [ "obj-40", 1 ]
				}

			}
, 			{
				"patchline" : 				{
					"destination" : [ "obj-39", 0 ],
					"source" : [ "obj-40", 0 ]
				}

			}
, 			{
				"patchline" : 				{
					"destination" : [ "obj-49", 0 ],
					"source" : [ "obj-41", 0 ]
				}

			}
, 			{
				"patchline" : 				{
					"destination" : [ "obj-54", 0 ],
					"source" : [ "obj-42", 0 ]
				}

			}
, 			{
				"patchline" : 				{
					"destination" : [ "obj-50", 0 ],
					"source" : [ "obj-43", 0 ]
				}

			}
, 			{
				"patchline" : 				{
					"destination" : [ "obj-60", 0 ],
					"source" : [ "obj-44", 0 ]
				}

			}
, 			{
				"patchline" : 				{
					"destination" : [ "obj-47", 0 ],
					"source" : [ "obj-46", 0 ]
				}

			}
, 			{
				"patchline" : 				{
					"destination" : [ "obj-51", 0 ],
					"source" : [ "obj-49", 0 ]
				}

			}
, 			{
				"patchline" : 				{
					"destination" : [ "obj-3", 0 ],
					"source" : [ "obj-5", 0 ]
				}

			}
, 			{
				"patchline" : 				{
					"destination" : [ "obj-51", 0 ],
					"source" : [ "obj-50", 0 ]
				}

			}
, 			{
				"patchline" : 				{
					"destination" : [ "obj-51", 0 ],
					"source" : [ "obj-53", 0 ]
				}

			}
, 			{
				"patchline" : 				{
					"destination" : [ "obj-33", 0 ],
					"source" : [ "obj-54", 0 ]
				}

			}
, 			{
				"patchline" : 				{
					"destination" : [ "obj-53", 0 ],
					"source" : [ "obj-57", 0 ]
				}

			}
, 			{
				"patchline" : 				{
					"destination" : [ "obj-60", 0 ],
					"source" : [ "obj-59", 0 ]
				}

			}
, 			{
				"patchline" : 				{
					"destination" : [ "obj-3", 0 ],
					"source" : [ "obj-6", 0 ]
				}

			}
, 			{
				"patchline" : 				{
					"destination" : [ "obj-64", 0 ],
					"source" : [ "obj-61", 0 ]
				}

			}
, 			{
				"patchline" : 				{
					"destination" : [ "obj-63", 0 ],
					"source" : [ "obj-64", 0 ]
				}

			}
, 			{
				"patchline" : 				{
					"destination" : [ "obj-59", 0 ],
					"source" : [ "obj-65", 0 ]
				}

			}
, 			{
				"patchline" : 				{
					"destination" : [ "obj-44", 0 ],
					"source" : [ "obj-68", 0 ]
				}

			}
, 			{
				"patchline" : 				{
					"destination" : [ "obj-3", 0 ],
					"source" : [ "obj-7", 0 ]
				}

			}
, 			{
				"patchline" : 				{
					"destination" : [ "obj-74", 0 ],
					"source" : [ "obj-71", 0 ]
				}

			}
, 			{
				"patchline" : 				{
					"destination" : [ "obj-72", 0 ],
					"source" : [ "obj-73", 0 ]
				}

			}
, 			{
				"patchline" : 				{
					"destination" : [ "obj-73", 0 ],
					"source" : [ "obj-74", 0 ]
				}

			}
, 			{
				"patchline" : 				{
					"destination" : [ "obj-72", 0 ],
					"source" : [ "obj-75", 0 ]
				}

			}
, 			{
				"patchline" : 				{
					"destination" : [ "obj-75", 0 ],
					"source" : [ "obj-77", 0 ]
				}

			}
, 			{
				"patchline" : 				{
					"destination" : [ "obj-80", 0 ],
					"source" : [ "obj-79", 0 ]
				}

			}
, 			{
				"patchline" : 				{
					"destination" : [ "obj-72", 0 ],
					"source" : [ "obj-80", 0 ]
				}

			}
, 			{
				"patchline" : 				{
					"destination" : [ "obj-85", 0 ],
					"source" : [ "obj-82", 0 ]
				}

			}
, 			{
				"patchline" : 				{
					"destination" : [ "obj-88", 0 ],
					"source" : [ "obj-85", 1 ]
				}

			}
, 			{
				"patchline" : 				{
					"destination" : [ "obj-86", 0 ],
					"source" : [ "obj-88", 0 ]
				}

			}
, 			{
				"patchline" : 				{
					"destination" : [ "obj-10", 0 ],
					"order" : 2,
					"source" : [ "obj-89", 0 ]
				}

			}
, 			{
				"patchline" : 				{
					"destination" : [ "obj-12", 0 ],
					"order" : 3,
					"source" : [ "obj-89", 0 ]
				}

			}
, 			{
				"patchline" : 				{
					"destination" : [ "obj-24", 0 ],
					"order" : 0,
					"source" : [ "obj-89", 0 ]
				}

			}
, 			{
				"patchline" : 				{
					"destination" : [ "obj-38", 0 ],
					"order" : 1,
					"source" : [ "obj-89", 0 ]
				}

			}
, 			{
				"patchline" : 				{
					"destination" : [ "obj-19", 0 ],
					"source" : [ "obj-9", 0 ]
				}

			}
, 			{
				"patchline" : 				{
					"destination" : [ "obj-2", 0 ],
					"source" : [ "obj-90", 0 ]
				}

			}
, 			{
				"patchline" : 				{
					"destination" : [ "obj-61", 0 ],
					"source" : [ "obj-91", 0 ]
				}

			}
, 			{
				"patchline" : 				{
					"destination" : [ "obj-54", 0 ],
					"source" : [ "obj-92", 0 ]
				}

			}
, 			{
				"patchline" : 				{
					"destination" : [ "obj-32", 0 ],
					"source" : [ "obj-93", 0 ]
				}

			}
, 			{
				"patchline" : 				{
					"destination" : [ "obj-65", 0 ],
					"order" : 1,
					"source" : [ "obj-94", 0 ]
				}

			}
, 			{
				"patchline" : 				{
					"destination" : [ "obj-68", 0 ],
					"order" : 0,
					"source" : [ "obj-94", 0 ]
				}

			}
, 			{
				"patchline" : 				{
					"destination" : [ "obj-41", 0 ],
					"order" : 1,
					"source" : [ "obj-95", 0 ]
				}

			}
, 			{
				"patchline" : 				{
					"destination" : [ "obj-43", 0 ],
					"order" : 0,
					"source" : [ "obj-95", 0 ]
				}

			}
, 			{
				"patchline" : 				{
					"destination" : [ "obj-57", 0 ],
					"order" : 2,
					"source" : [ "obj-95", 0 ]
				}

			}
, 			{
				"patchline" : 				{
					"destination" : [ "obj-74", 0 ],
					"order" : 2,
					"source" : [ "obj-96", 0 ]
				}

			}
, 			{
				"patchline" : 				{
					"destination" : [ "obj-77", 0 ],
					"order" : 0,
					"source" : [ "obj-96", 0 ]
				}

			}
, 			{
				"patchline" : 				{
					"destination" : [ "obj-79", 0 ],
					"order" : 1,
					"source" : [ "obj-96", 0 ]
				}

			}
, 			{
				"patchline" : 				{
					"destination" : [ "obj-38", 0 ],
					"hidden" : 1,
					"source" : [ "obj-97", 0 ]
				}

			}
 ],
		"parameters" : 		{
			"obj-10" : [ "Decay", "Decay", 0 ],
			"obj-12" : [ "Attack", "Attack", 0 ],
			"obj-2" : [ "live.menu", "live.menu", 0 ],
			"obj-24" : [ "Release", "Release", 0 ],
			"obj-32" : [ "to-fm", "Routing", 0 ],
			"obj-38" : [ "Sustain", "Sustain", 0 ],
			"obj-41" : [ "dividend", "dividend", 0 ],
			"obj-43" : [ "divisor", "divisor", 0 ],
			"obj-54" : [ "pulsewidth", "Pulse Width", 0 ],
			"obj-57" : [ "detune", "Detune", 0 ],
			"obj-61" : [ "noise", "Noise", 0 ],
			"obj-65" : [ "FM", "FM", 0 ],
			"obj-68" : [ "Gain", "Gain", 0 ],
			"obj-74" : [ "live.menu[1]", "live.menu", 0 ],
			"obj-77" : [ "LFO-Freq", "LFO Freq.", 0 ],
			"obj-79" : [ "LFO-Depth", "LFO Depth", 0 ],
			"parameterbanks" : 			{
				"0" : 				{
					"index" : 0,
					"name" : "",
					"parameters" : [ "-", "-", "-", "-", "-", "-", "-", "-" ]
				}

			}
,
			"inherited_shortname" : 1
		}
,
		"dependency_cache" : [  ],
		"autosave" : 0,
		"boxgroups" : [ 			{
				"boxes" : [ "obj-69", "obj-56", "obj-57", "obj-45", "obj-48", "obj-43", "obj-41", "obj-99" ]
			}
, 			{
				"boxes" : [ "obj-55", "obj-81", "obj-78", "obj-76", "obj-74", "obj-79", "obj-77", "obj-103" ]
			}
, 			{
				"boxes" : [ "obj-70", "obj-101", "obj-2", "obj-31", "obj-58", "obj-54", "obj-62", "obj-61" ]
			}
, 			{
				"boxes" : [ "obj-83", "obj-67", "obj-65", "obj-66", "obj-68", "obj-105", "obj-32" ]
			}
, 			{
				"boxes" : [ "obj-84", "obj-24", "obj-38", "obj-19", "obj-20", "obj-21", "obj-10", "obj-108", "obj-18", "obj-12", "obj-1" ]
			}
 ],
		"bgcolor" : [ 0.890196078431372, 0.890196078431372, 0.890196078431372, 1.0 ]
	}

}
