{
	"patcher" : 	{
		"fileversion" : 1,
		"appversion" : 		{
			"major" : 8,
			"minor" : 5,
			"revision" : 7,
			"architecture" : "x64",
			"modernui" : 1
		}
,
		"classnamespace" : "box",
		"rect" : [ 281.0, 99.0, 1155.0, 823.0 ],
		"bglocked" : 0,
		"openinpresentation" : 1,
		"default_fontsize" : 12.0,
		"default_fontface" : 0,
		"default_fontname" : "Arial",
		"gridonopen" : 1,
		"gridsize" : [ 15.0, 15.0 ],
		"gridsnaponopen" : 1,
		"objectsnaponopen" : 1,
		"statusbarvisible" : 2,
		"toolbarvisible" : 1,
		"lefttoolbarpinned" : 0,
		"toptoolbarpinned" : 0,
		"righttoolbarpinned" : 0,
		"bottomtoolbarpinned" : 0,
		"toolbars_unpinned_last_save" : 0,
		"tallnewobj" : 0,
		"boxanimatetime" : 200,
		"enablehscroll" : 1,
		"enablevscroll" : 1,
		"devicewidth" : 0.0,
		"description" : "",
		"digest" : "",
		"tags" : "",
		"style" : "",
		"subpatcher_template" : "",
		"assistshowspatchername" : 0,
		"boxes" : [ 			{
				"box" : 				{
					"id" : "obj-67",
					"maxclass" : "newobj",
					"numinlets" : 0,
					"numoutlets" : 1,
					"outlettype" : [ "" ],
					"patching_rect" : [ 1129.977806763517037, 72.75000262260437, 71.0, 22.0 ],
					"text" : "r #0-sendall"
				}

			}
, 			{
				"box" : 				{
					"automation" : "Off",
					"automationon" : "On",
					"id" : "obj-61",
					"maxclass" : "live.text",
					"numinlets" : 1,
					"numoutlets" : 2,
					"outlettype" : [ "", "" ],
					"parameter_enable" : 1,
					"patching_rect" : [ 1129.977806763517037, 108.249987006187439, 64.0, 26.0 ],
					"presentation" : 1,
					"presentation_rect" : [ 7.38888346486624, 86.083350658416748, 67.0, 14.0 ],
					"saved_attribute_attributes" : 					{
						"valueof" : 						{
							"parameter_enum" : [ "Off", "On" ],
							"parameter_initial" : [ 0.0 ],
							"parameter_initial_enable" : 1,
							"parameter_linknames" : 1,
							"parameter_longname" : "Filter LFO Retrigger",
							"parameter_mmax" : 1,
							"parameter_shortname" : "Filter LFO Retrigger",
							"parameter_type" : 2
						}

					}
,
					"text" : "Retrigger",
					"texton" : "Retrigger",
					"varname" : "Filter LFO Retrigger"
				}

			}
, 			{
				"box" : 				{
					"id" : "obj-57",
					"maxclass" : "newobj",
					"numinlets" : 1,
					"numoutlets" : 0,
					"patching_rect" : [ 1129.977806763517037, 208.75000262260437, 52.0, 22.0 ],
					"text" : "s #0-out"
				}

			}
, 			{
				"box" : 				{
					"id" : "obj-52",
					"maxclass" : "newobj",
					"numinlets" : 1,
					"numoutlets" : 1,
					"outlettype" : [ "" ],
					"patching_rect" : [ 1129.977806763517037, 151.083326935768127, 140.0, 22.0 ],
					"text" : "prepend filterlfo-retrigger",
					"varname" : "filterlfo-retrigger"
				}

			}
, 			{
				"box" : 				{
					"id" : "obj-53",
					"maxclass" : "live.comment",
					"numinlets" : 1,
					"numoutlets" : 0,
					"patching_rect" : [ 282.61108748780407, 300.833329439163208, 107.111101773050109, 18.0 ],
					"presentation" : 1,
					"presentation_rect" : [ 72.88888346486624, 84.083350658416748, 38.0, 18.0 ],
					"text" : "LFO",
					"textjustification" : 0
				}

			}
, 			{
				"box" : 				{
					"id" : "obj-73",
					"maxclass" : "newobj",
					"numinlets" : 1,
					"numoutlets" : 0,
					"patching_rect" : [ 394.977791047759638, 165.750002503395081, 52.0, 22.0 ],
					"text" : "s #0-out"
				}

			}
, 			{
				"box" : 				{
					"id" : "obj-32",
					"maxclass" : "newobj",
					"numinlets" : 0,
					"numoutlets" : 1,
					"outlettype" : [ "" ],
					"patching_rect" : [ 394.977791047759638, 72.750002503395081, 75.0, 22.0 ],
					"text" : "r #0-send-all"
				}

			}
, 			{
				"box" : 				{
					"id" : "obj-33",
					"maxclass" : "newobj",
					"numinlets" : 1,
					"numoutlets" : 0,
					"patching_rect" : [ 974.311154938407526, 191.75000274181366, 52.0, 22.0 ],
					"text" : "s #0-out"
				}

			}
, 			{
				"box" : 				{
					"id" : "obj-34",
					"maxclass" : "newobj",
					"numinlets" : 0,
					"numoutlets" : 1,
					"outlettype" : [ "" ],
					"patching_rect" : [ 974.311154938407526, 72.75000262260437, 71.0, 22.0 ],
					"text" : "r #0-sendall"
				}

			}
, 			{
				"box" : 				{
					"id" : "obj-36",
					"maxclass" : "newobj",
					"numinlets" : 0,
					"numoutlets" : 1,
					"outlettype" : [ "" ],
					"patching_rect" : [ 678.533356577158429, 72.750002503395081, 71.0, 22.0 ],
					"text" : "r #0-sendall"
				}

			}
, 			{
				"box" : 				{
					"id" : "obj-68",
					"maxclass" : "newobj",
					"numinlets" : 0,
					"numoutlets" : 1,
					"outlettype" : [ "" ],
					"patching_rect" : [ 279.11108748780407, 72.750002503395081, 71.0, 22.0 ],
					"text" : "r #0-sendall"
				}

			}
, 			{
				"box" : 				{
					"id" : "obj-58",
					"maxclass" : "newobj",
					"numinlets" : 1,
					"numoutlets" : 0,
					"patching_rect" : [ 282.61108748780407, 192.750002503395081, 52.0, 22.0 ],
					"text" : "s #0-out"
				}

			}
, 			{
				"box" : 				{
					"id" : "obj-38",
					"maxclass" : "newobj",
					"numinlets" : 1,
					"numoutlets" : 1,
					"outlettype" : [ "" ],
					"patching_rect" : [ 282.61108748780407, 156.25, 96.0, 22.0 ],
					"text" : "prepend filter-on"
				}

			}
, 			{
				"box" : 				{
					"automation" : "filter off",
					"automationon" : "filter on",
					"id" : "obj-39",
					"maxclass" : "live.text",
					"numinlets" : 1,
					"numoutlets" : 2,
					"outlettype" : [ "", "" ],
					"parameter_enable" : 1,
					"patching_rect" : [ 282.61108748780407, 114.75, 64.0, 26.0 ],
					"presentation" : 1,
					"presentation_rect" : [ 7.38888346486624, 8.25, 100.277766929732479, 22.0 ],
					"saved_attribute_attributes" : 					{
						"valueof" : 						{
							"parameter_enum" : [ "filter off", "filter on" ],
							"parameter_initial" : [ 0.0 ],
							"parameter_initial_enable" : 1,
							"parameter_linknames" : 1,
							"parameter_longname" : "Filter Enable",
							"parameter_mmax" : 1,
							"parameter_shortname" : "Filter Enable",
							"parameter_type" : 2
						}

					}
,
					"text" : "filter",
					"texton" : "FILTER",
					"varname" : "Filter Enable"
				}

			}
, 			{
				"box" : 				{
					"id" : "obj-64",
					"maxclass" : "newobj",
					"numinlets" : 1,
					"numoutlets" : 0,
					"patching_rect" : [ 679.811123785045766, 182.750002503395081, 52.0, 22.0 ],
					"text" : "s #0-out"
				}

			}
, 			{
				"box" : 				{
					"id" : "obj-63",
					"maxclass" : "newobj",
					"numinlets" : 1,
					"numoutlets" : 1,
					"outlettype" : [ "" ],
					"patching_rect" : [ 679.811123785045766, 140.750002503395081, 113.0, 22.0 ],
					"text" : "prepend filter-mode"
				}

			}
, 			{
				"box" : 				{
					"id" : "obj-40",
					"maxclass" : "live.menu",
					"numinlets" : 1,
					"numoutlets" : 3,
					"outlettype" : [ "", "", "float" ],
					"parameter_enable" : 1,
					"patching_rect" : [ 678.533356577158429, 115.750002503395081, 100.0, 15.0 ],
					"presentation" : 1,
					"presentation_rect" : [ 7.38888346486624, 31.666701316833496, 66.88888346486624, 15.0 ],
					"saved_attribute_attributes" : 					{
						"valueof" : 						{
							"parameter_enum" : [ "low-pass", "band-pass", "band-reject", "high-pass" ],
							"parameter_linknames" : 1,
							"parameter_longname" : "Filter Mode",
							"parameter_mmax" : 3,
							"parameter_shortname" : "Filter Mode",
							"parameter_type" : 2
						}

					}
,
					"varname" : "Filter Mode"
				}

			}
, 			{
				"box" : 				{
					"id" : "obj-96",
					"maxclass" : "newobj",
					"numinlets" : 0,
					"numoutlets" : 1,
					"outlettype" : [ "" ],
					"patching_rect" : [ 830.644488549895868, 72.75000262260437, 71.0, 22.0 ],
					"text" : "r #0-sendall"
				}

			}
, 			{
				"box" : 				{
					"id" : "obj-2",
					"maxclass" : "live.comment",
					"numinlets" : 1,
					"numoutlets" : 0,
					"patching_rect" : [ 880.533386776845873, 115.75000262260437, 73.111101773050109, 18.0 ],
					"presentation" : 1,
					"presentation_rect" : [ 72.88888346486624, 102.083350658416748, 38.0, 18.0 ],
					"text" : "Range",
					"textjustification" : 0
				}

			}
, 			{
				"box" : 				{
					"id" : "obj-75",
					"maxclass" : "newobj",
					"numinlets" : 1,
					"numoutlets" : 1,
					"outlettype" : [ "" ],
					"patching_rect" : [ 974.311154938407526, 154.75000524520874, 103.0, 22.0 ],
					"text" : "prepend filter-rate"
				}

			}
, 			{
				"box" : 				{
					"id" : "obj-3",
					"maxclass" : "live.comment",
					"numinlets" : 1,
					"numoutlets" : 0,
					"patching_rect" : [ 1020.311154938407526, 114.75000274181366, 41.111101773050109, 18.0 ],
					"presentation" : 1,
					"presentation_rect" : [ 72.88888346486624, 117.75, 37.88888346486624, 18.0 ],
					"text" : "Rate",
					"textjustification" : 0
				}

			}
, 			{
				"box" : 				{
					"appearance" : 2,
					"id" : "obj-44",
					"maxclass" : "live.numbox",
					"numinlets" : 1,
					"numoutlets" : 2,
					"outlettype" : [ "", "float" ],
					"parameter_enable" : 1,
					"patching_rect" : [ 974.311154938407526, 114.75000274181366, 44.0, 15.0 ],
					"presentation" : 1,
					"presentation_rect" : [ 7.38888346486624, 117.75, 67.0, 15.0 ],
					"saved_attribute_attributes" : 					{
						"valueof" : 						{
							"parameter_exponent" : 4.0,
							"parameter_initial" : [ 0.0 ],
							"parameter_initial_enable" : 1,
							"parameter_linknames" : 1,
							"parameter_longname" : "Filter Rate",
							"parameter_mmax" : 20.0,
							"parameter_shortname" : "Filter Rate",
							"parameter_type" : 0,
							"parameter_unitstyle" : 1
						}

					}
,
					"varname" : "Filter Rate"
				}

			}
, 			{
				"box" : 				{
					"id" : "obj-5",
					"maxclass" : "live.comment",
					"numinlets" : 1,
					"numoutlets" : 0,
					"patching_rect" : [ 775.42225587699204, 115.750002503395081, 36.111101773050109, 18.0 ],
					"presentation" : 1,
					"presentation_rect" : [ 72.777766929732479, 31.666701316833496, 34.88888346486624, 18.0 ],
					"text" : "Mode",
					"textjustification" : 0
				}

			}
, 			{
				"box" : 				{
					"appearance" : 2,
					"id" : "obj-46",
					"maxclass" : "live.numbox",
					"numinlets" : 1,
					"numoutlets" : 2,
					"outlettype" : [ "", "float" ],
					"parameter_enable" : 1,
					"patching_rect" : [ 830.644488549895868, 115.75000262260437, 44.0, 15.0 ],
					"presentation" : 1,
					"presentation_rect" : [ 7.38888346486624, 102.083350658416748, 67.0, 15.0 ],
					"saved_attribute_attributes" : 					{
						"valueof" : 						{
							"parameter_initial" : [ 0.0 ],
							"parameter_initial_enable" : 1,
							"parameter_linknames" : 1,
							"parameter_longname" : "Filter LFO Range",
							"parameter_mmax" : 48.0,
							"parameter_shortname" : "Filter LFO Range",
							"parameter_type" : 0,
							"parameter_unitstyle" : 7
						}

					}
,
					"varname" : "Filter LFO Range"
				}

			}
, 			{
				"box" : 				{
					"id" : "obj-80",
					"maxclass" : "newobj",
					"numinlets" : 1,
					"numoutlets" : 1,
					"outlettype" : [ "" ],
					"patching_rect" : [ 830.644488549895868, 143.750005125999451, 113.0, 22.0 ],
					"text" : "prepend filter-range"
				}

			}
, 			{
				"box" : 				{
					"id" : "obj-72",
					"maxclass" : "newobj",
					"numinlets" : 1,
					"numoutlets" : 0,
					"patching_rect" : [ 830.644488549895868, 182.75000262260437, 52.0, 22.0 ],
					"text" : "s #0-out"
				}

			}
, 			{
				"box" : 				{
					"id" : "obj-47",
					"maxclass" : "newobj",
					"numinlets" : 0,
					"numoutlets" : 1,
					"outlettype" : [ "" ],
					"patching_rect" : [ 556.977791047759638, 72.750002503395081, 75.0, 22.0 ],
					"text" : "r #0-send-all"
				}

			}
, 			{
				"box" : 				{
					"id" : "obj-48",
					"maxclass" : "newobj",
					"numinlets" : 1,
					"numoutlets" : 0,
					"patching_rect" : [ 556.977791047759638, 184.750002503395081, 52.0, 22.0 ],
					"text" : "s #0-out"
				}

			}
, 			{
				"box" : 				{
					"id" : "obj-49",
					"maxclass" : "newobj",
					"numinlets" : 1,
					"numoutlets" : 1,
					"outlettype" : [ "" ],
					"patching_rect" : [ 394.977791047759638, 126.750002503395081, 152.0, 22.0 ],
					"text" : "sprintf center-frequency %f"
				}

			}
, 			{
				"box" : 				{
					"id" : "obj-50",
					"maxclass" : "newobj",
					"numinlets" : 1,
					"numoutlets" : 1,
					"outlettype" : [ "" ],
					"patching_rect" : [ 556.977791047759638, 141.750002503395081, 95.0, 22.0 ],
					"text" : "sprintf filter-q %f"
				}

			}
, 			{
				"box" : 				{
					"id" : "obj-81",
					"maxclass" : "live.comment",
					"numinlets" : 1,
					"numoutlets" : 0,
					"patching_rect" : [ 440.977791047759638, 104.250002503395081, 91.111101773049995, 18.0 ],
					"presentation" : 1,
					"presentation_rect" : [ 72.88888346486624, 52.083350658416748, 37.999999284744263, 18.0 ],
					"text" : "Freq",
					"textjustification" : 0
				}

			}
, 			{
				"box" : 				{
					"id" : "obj-76",
					"maxclass" : "live.comment",
					"numinlets" : 1,
					"numoutlets" : 0,
					"patching_rect" : [ 602.977791047759638, 112.750002503395081, 38.111101773050109, 18.0 ],
					"presentation" : 1,
					"presentation_rect" : [ 72.88888346486624, 64.25, 38.0, 18.0 ],
					"text" : "Q",
					"textjustification" : 0
				}

			}
, 			{
				"box" : 				{
					"appearance" : 2,
					"id" : "obj-77",
					"maxclass" : "live.numbox",
					"numinlets" : 1,
					"numoutlets" : 2,
					"outlettype" : [ "", "float" ],
					"parameter_enable" : 1,
					"patching_rect" : [ 556.977791047759638, 112.750002503395081, 44.0, 15.0 ],
					"presentation" : 1,
					"presentation_rect" : [ 7.38888346486624, 67.083350658416748, 67.0, 15.0 ],
					"saved_attribute_attributes" : 					{
						"valueof" : 						{
							"parameter_exponent" : 4.0,
							"parameter_initial" : [ 0.0 ],
							"parameter_initial_enable" : 1,
							"parameter_linknames" : 1,
							"parameter_longname" : "Filter Q",
							"parameter_mmax" : 1.0,
							"parameter_shortname" : "Filter Q",
							"parameter_type" : 0,
							"parameter_unitstyle" : 1
						}

					}
,
					"varname" : "Filter Q"
				}

			}
, 			{
				"box" : 				{
					"appearance" : 2,
					"id" : "obj-79",
					"maxclass" : "live.numbox",
					"numinlets" : 1,
					"numoutlets" : 2,
					"outlettype" : [ "", "float" ],
					"parameter_enable" : 1,
					"patching_rect" : [ 394.977791047759638, 104.250002503395081, 44.0, 15.0 ],
					"presentation" : 1,
					"presentation_rect" : [ 7.38888346486624, 52.083350658416748, 67.0, 15.0 ],
					"saved_attribute_attributes" : 					{
						"valueof" : 						{
							"parameter_exponent" : 4.0,
							"parameter_initial" : [ 0.0 ],
							"parameter_initial_enable" : 1,
							"parameter_linknames" : 1,
							"parameter_longname" : "Filter Cut Off",
							"parameter_mmax" : 20000.0,
							"parameter_mmin" : 20.0,
							"parameter_shortname" : "Filter Cut Off",
							"parameter_type" : 0,
							"parameter_unitstyle" : 1
						}

					}
,
					"varname" : "Filter Cut Off"
				}

			}
, 			{
				"box" : 				{
					"angle" : 270.0,
					"bgcolor" : [ 1.0, 1.0, 1.0, 0.25 ],
					"id" : "obj-51",
					"maxclass" : "panel",
					"mode" : 0,
					"numinlets" : 1,
					"numoutlets" : 0,
					"patching_rect" : [ 282.61108748780407, 233.833329439163208, 109.0, 65.0 ],
					"presentation" : 1,
					"presentation_rect" : [ 3.5, 4.25, 107.722216003470976, 134.000000357627869 ],
					"proportion" : 0.5
				}

			}
, 			{
				"box" : 				{
					"id" : "obj-111",
					"maxclass" : "comment",
					"numinlets" : 1,
					"numoutlets" : 0,
					"patching_rect" : [ 1708.0, 2059.0, 150.0, 20.0 ]
				}

			}
, 			{
				"box" : 				{
					"id" : "obj-41",
					"maxclass" : "message",
					"numinlets" : 2,
					"numoutlets" : 1,
					"outlettype" : [ "" ],
					"patching_rect" : [ 67.650642810633144, 108.750002503395081, 71.0, 22.0 ],
					"text" : "outputvalue"
				}

			}
, 			{
				"box" : 				{
					"id" : "obj-42",
					"maxclass" : "newobj",
					"numinlets" : 1,
					"numoutlets" : 0,
					"patching_rect" : [ 67.650642810633144, 144.750002503395081, 73.0, 22.0 ],
					"text" : "s #0-sendall"
				}

			}
, 			{
				"box" : 				{
					"id" : "obj-43",
					"maxclass" : "newobj",
					"numinlets" : 1,
					"numoutlets" : 6,
					"outlettype" : [ "signal", "bang", "int", "float", "", "list" ],
					"patching_rect" : [ 28.35064281063319, 72.750002503395081, 215.5, 22.0 ],
					"text" : "typeroute~"
				}

			}
, 			{
				"box" : 				{
					"comment" : "",
					"id" : "obj-45",
					"index" : 0,
					"maxclass" : "inlet",
					"numinlets" : 0,
					"numoutlets" : 1,
					"outlettype" : [ "" ],
					"patching_rect" : [ 28.35064281063319, 29.750002503395081, 30.0, 30.0 ]
				}

			}
, 			{
				"box" : 				{
					"id" : "obj-6",
					"maxclass" : "newobj",
					"numinlets" : 0,
					"numoutlets" : 1,
					"outlettype" : [ "" ],
					"patching_rect" : [ 28.35064281063319, 221.583340167999268, 50.0, 22.0 ],
					"text" : "r #0-out"
				}

			}
, 			{
				"box" : 				{
					"comment" : "",
					"id" : "obj-1",
					"index" : 0,
					"maxclass" : "outlet",
					"numinlets" : 1,
					"numoutlets" : 0,
					"patching_rect" : [ 28.35064281063319, 265.583340406417847, 30.0, 30.0 ]
				}

			}
 ],
		"lines" : [ 			{
				"patchline" : 				{
					"destination" : [ "obj-79", 0 ],
					"source" : [ "obj-32", 0 ]
				}

			}
, 			{
				"patchline" : 				{
					"destination" : [ "obj-44", 0 ],
					"source" : [ "obj-34", 0 ]
				}

			}
, 			{
				"patchline" : 				{
					"destination" : [ "obj-40", 0 ],
					"source" : [ "obj-36", 0 ]
				}

			}
, 			{
				"patchline" : 				{
					"destination" : [ "obj-58", 0 ],
					"source" : [ "obj-38", 0 ]
				}

			}
, 			{
				"patchline" : 				{
					"destination" : [ "obj-38", 0 ],
					"source" : [ "obj-39", 0 ]
				}

			}
, 			{
				"patchline" : 				{
					"destination" : [ "obj-63", 0 ],
					"source" : [ "obj-40", 0 ]
				}

			}
, 			{
				"patchline" : 				{
					"destination" : [ "obj-42", 0 ],
					"source" : [ "obj-41", 0 ]
				}

			}
, 			{
				"patchline" : 				{
					"destination" : [ "obj-41", 0 ],
					"source" : [ "obj-43", 1 ]
				}

			}
, 			{
				"patchline" : 				{
					"destination" : [ "obj-75", 0 ],
					"source" : [ "obj-44", 0 ]
				}

			}
, 			{
				"patchline" : 				{
					"destination" : [ "obj-43", 0 ],
					"source" : [ "obj-45", 0 ]
				}

			}
, 			{
				"patchline" : 				{
					"destination" : [ "obj-80", 0 ],
					"source" : [ "obj-46", 0 ]
				}

			}
, 			{
				"patchline" : 				{
					"destination" : [ "obj-77", 0 ],
					"source" : [ "obj-47", 0 ]
				}

			}
, 			{
				"patchline" : 				{
					"destination" : [ "obj-73", 0 ],
					"source" : [ "obj-49", 0 ]
				}

			}
, 			{
				"patchline" : 				{
					"destination" : [ "obj-48", 0 ],
					"source" : [ "obj-50", 0 ]
				}

			}
, 			{
				"patchline" : 				{
					"destination" : [ "obj-57", 0 ],
					"source" : [ "obj-52", 0 ]
				}

			}
, 			{
				"patchline" : 				{
					"destination" : [ "obj-1", 0 ],
					"source" : [ "obj-6", 0 ]
				}

			}
, 			{
				"patchline" : 				{
					"destination" : [ "obj-52", 0 ],
					"source" : [ "obj-61", 0 ]
				}

			}
, 			{
				"patchline" : 				{
					"destination" : [ "obj-64", 0 ],
					"source" : [ "obj-63", 0 ]
				}

			}
, 			{
				"patchline" : 				{
					"destination" : [ "obj-61", 0 ],
					"source" : [ "obj-67", 0 ]
				}

			}
, 			{
				"patchline" : 				{
					"destination" : [ "obj-39", 0 ],
					"source" : [ "obj-68", 0 ]
				}

			}
, 			{
				"patchline" : 				{
					"destination" : [ "obj-33", 0 ],
					"source" : [ "obj-75", 0 ]
				}

			}
, 			{
				"patchline" : 				{
					"destination" : [ "obj-50", 0 ],
					"source" : [ "obj-77", 0 ]
				}

			}
, 			{
				"patchline" : 				{
					"destination" : [ "obj-49", 0 ],
					"source" : [ "obj-79", 0 ]
				}

			}
, 			{
				"patchline" : 				{
					"destination" : [ "obj-72", 0 ],
					"source" : [ "obj-80", 0 ]
				}

			}
, 			{
				"patchline" : 				{
					"destination" : [ "obj-46", 0 ],
					"source" : [ "obj-96", 0 ]
				}

			}
 ],
		"parameters" : 		{
			"obj-39" : [ "Filter Enable", "Filter Enable", 0 ],
			"obj-40" : [ "Filter Mode", "Filter Mode", 0 ],
			"obj-44" : [ "Filter Rate", "Filter Rate", 0 ],
			"obj-46" : [ "Filter LFO Range", "Filter LFO Range", 0 ],
			"obj-61" : [ "Filter LFO Retrigger", "Filter LFO Retrigger", 0 ],
			"obj-77" : [ "Filter Q", "Filter Q", 0 ],
			"obj-79" : [ "Filter Cut Off", "Filter Cut Off", 0 ],
			"parameterbanks" : 			{
				"0" : 				{
					"index" : 0,
					"name" : "",
					"parameters" : [ "-", "-", "-", "-", "-", "-", "-", "-" ]
				}

			}
,
			"inherited_shortname" : 1
		}
,
		"dependency_cache" : [  ],
		"autosave" : 0
	}

}
